<?xml version="1.0" encoding="utf-8"?>
<!-- Designed by Vexels.com - 2016 All Rights Reserved - https://vexels.com/terms-and-conditions/  -->

<svg version="1.0" id="Capa_1" xmlns="http://www.w3.org/2000/svg" xmlns:xlink="http://www.w3.org/1999/xlink" x="0px" y="0px"
	 width="1200px" height="1199.999px" viewBox="0 0 1200 1199.999" enable-background="new 0 0 1200 1199.999" xml:space="preserve">
<g>
	<path fill="#134956" d="M851.956,1056.267c0,18.652-15.095,33.781-33.747,33.781H381.756c-18.629,0-33.712-15.129-33.712-33.781
		V143.709c0-18.664,15.083-33.758,33.712-33.758h436.453c18.652,0,33.747,15.094,33.747,33.758V1056.267z"/>
	<rect x="395.653" y="276.595" fill="#26C1D9" width="408.682" height="634.871"/>
	<path fill="#969EB0" d="M659.83,200.335c0,7.035-5.723,12.769-12.768,12.769h-94.124c-7.081,0-12.792-5.734-12.792-12.769l0,0
		c0-7.034,5.711-12.768,12.792-12.768h94.124C654.108,187.567,659.83,193.301,659.83,200.335L659.83,200.335z"/>
	<path fill="#969EB0" d="M648.646,1006.72c0,26.871-21.775,48.659-48.669,48.659c-26.86,0-48.659-21.788-48.659-48.659
		c0-26.894,21.798-48.681,48.659-48.681C626.872,958.039,648.646,979.826,648.646,1006.72z"/>
</g>
</svg>
