<?xml version="1.0" standalone="no"?>
<!DOCTYPE svg PUBLIC "-//W3C//DTD SVG 20010904//EN"
 "http://www.w3.org/TR/2001/REC-SVG-20010904/DTD/svg10.dtd">
<svg version="1.0" xmlns="http://www.w3.org/2000/svg"
 width="688.000000pt" height="688.000000pt" viewBox="0 0 688.000000 688.000000"
 preserveAspectRatio="xMidYMid meet">
<metadata>
Created by potrace 1.11, written by Peter Selinger 2001-2013
</metadata>
<g transform="translate(0.000000,688.000000) scale(0.100000,-0.100000)"
fill="#000000" stroke="none">
<path d="M2780 6869 c-62 -14 -60 -13 -105 -28 -22 -8 -44 -17 -50 -21 -5 -5
-13 -9 -18 -9 -28 -2 -149 -85 -210 -144 -61 -60 -147 -173 -147 -192 0 -3 -9
-24 -20 -48 -10 -23 -22 -55 -25 -72 -3 -16 -8 -41 -11 -55 -13 -64 -14 -79
-15 -140 0 -133 36 -268 103 -383 15 -26 28 -53 28 -58 0 -10 -32 -50 -153
-193 -23 -27 -53 -63 -67 -79 -14 -17 -63 -76 -108 -131 -46 -56 -101 -121
-122 -146 -48 -57 -167 -199 -188 -225 -10 -11 -60 -72 -112 -135 -86 -104
-126 -151 -155 -184 -5 -6 -39 -47 -75 -91 -35 -44 -69 -85 -75 -91 -5 -6 -28
-33 -50 -60 -22 -26 -49 -59 -61 -72 l-20 -25 -60 21 c-87 30 -169 42 -259 38
-106 -5 -154 -16 -262 -62 -17 -8 -34 -14 -37 -14 -4 0 -12 -5 -19 -10 -7 -6
-34 -25 -62 -43 -105 -68 -215 -201 -261 -317 -63 -155 -69 -310 -19 -505 2
-10 25 -61 51 -112 84 -171 236 -297 425 -353 36 -11 75 -20 86 -20 22 0 20 4
106 -185 30 -66 69 -151 87 -190 30 -66 45 -97 99 -220 13 -27 36 -77 51 -110
16 -33 49 -105 73 -160 25 -55 57 -127 72 -160 151 -327 249 -545 257 -567 8
-24 4 -31 -39 -75 -100 -100 -180 -239 -198 -348 -14 -80 -17 -106 -17 -155 0
-122 25 -228 79 -339 21 -42 41 -77 45 -79 4 -2 8 -8 8 -13 0 -25 110 -132
190 -183 123 -79 238 -115 385 -121 195 -7 374 61 512 193 89 86 179 232 203
332 11 44 15 50 38 51 15 0 34 2 42 3 8 2 53 6 100 10 47 4 105 9 130 11 25 2
77 7 115 10 39 3 90 7 115 10 25 3 79 7 120 10 41 3 95 7 120 9 25 3 74 7 110
10 36 4 90 9 120 11 30 3 87 8 125 10 39 3 90 7 115 10 25 2 79 7 120 10 109
9 147 13 225 20 39 4 90 9 115 10 50 4 166 13 226 19 22 3 77 7 124 11 47 4
101 8 120 10 34 3 147 13 240 21 67 5 180 15 220 19 125 12 210 15 210 7 0
-18 120 -131 177 -168 74 -47 171 -88 253 -106 67 -15 246 -17 305 -3 17 4 35
8 42 9 7 1 16 5 19 9 4 4 15 7 24 7 22 0 147 66 195 104 134 104 223 238 270
407 19 66 23 101 20 187 -3 122 -20 195 -71 296 -51 104 -143 214 -224 269
-25 17 -47 34 -50 38 -4 6 -146 78 -153 78 -23 -2 -58 18 -61 35 -3 11 -4 540
-4 1174 l1 1154 26 10 c14 5 34 11 44 13 35 8 130 55 181 92 130 94 220 217
282 388 34 93 42 243 19 350 -4 17 -8 35 -9 40 -6 34 -56 140 -94 200 -48 75
-169 200 -218 225 -16 8 -31 17 -34 20 -14 14 -93 51 -149 69 -128 42 -266 44
-396 7 -5 -2 -23 -7 -40 -11 -43 -12 -177 -82 -211 -111 -16 -14 -52 -47 -81
-74 l-52 -49 -213 90 c-117 50 -232 99 -255 110 -23 10 -44 19 -48 19 -3 0
-24 9 -48 19 -23 11 -71 32 -107 46 -64 27 -102 43 -208 91 -29 13 -56 24 -61
24 -4 0 -21 6 -37 14 -24 12 -96 43 -274 119 -14 6 -27 11 -30 12 -3 1 -18 8
-35 15 -16 7 -32 14 -35 15 -3 1 -23 9 -45 19 -22 10 -78 34 -125 53 -47 19
-103 43 -125 53 -22 10 -77 33 -122 52 -85 34 -92 42 -108 113 -4 17 -7 31 -6
32 0 10 -77 156 -101 191 -46 66 -175 192 -198 192 -6 0 -10 3 -10 8 0 11
-150 81 -211 98 -68 19 -240 26 -299 13z m287 -354 c54 -27 87 -52 129 -99 77
-86 107 -159 108 -256 0 -63 -6 -117 -15 -127 -1 -2 -2 -6 -3 -10 -6 -26 -48
-103 -56 -103 -6 0 -10 -6 -10 -12 -1 -38 -140 -132 -217 -148 -280 -59 -522
146 -500 424 6 88 24 136 72 201 44 58 137 134 166 135 9 0 19 3 23 8 16 16
95 29 161 26 56 -3 85 -11 142 -39z m608 -625 c93 -41 118 -52 280 -120 94
-40 186 -79 205 -87 19 -8 43 -19 52 -24 10 -5 25 -9 33 -9 8 0 15 -4 15 -10
0 -6 3 -9 8 -8 8 1 24 -5 112 -43 36 -15 142 -60 235 -100 94 -39 188 -80 211
-90 22 -10 65 -27 94 -39 29 -12 72 -29 94 -39 23 -11 86 -38 141 -61 202 -85
188 -76 181 -123 -13 -88 -7 -212 14 -297 6 -25 12 -51 14 -59 3 -14 -11 -28
-93 -97 -19 -16 -57 -50 -85 -75 -82 -75 -102 -92 -157 -139 -29 -25 -57 -49
-63 -55 -12 -11 -56 -50 -176 -155 -40 -36 -87 -77 -104 -92 -36 -33 -42 -34
-81 -8 -57 39 -240 121 -302 135 -10 3 -38 10 -63 16 -25 6 -54 13 -65 15 -11
1 -36 6 -55 9 -19 3 -75 8 -125 10 -49 3 -118 7 -152 10 -51 3 -64 1 -73 -13
-5 -9 -10 -14 -10 -10 0 3 -39 -3 -87 -13 -47 -10 -88 -18 -89 -16 -2 2 -52
205 -68 276 -3 11 -26 106 -52 213 -26 106 -50 209 -55 228 -4 19 -10 45 -13
58 -3 12 -8 30 -10 40 -11 43 -28 118 -31 132 -1 8 -8 35 -15 60 -7 25 -13 52
-15 60 -2 8 -8 33 -14 55 -25 96 -25 113 7 133 100 60 222 219 266 345 7 20
22 18 91 -13z m-948 -441 c26 -6 57 -13 68 -15 11 -3 57 -5 102 -6 l81 -1 17
-60 c10 -34 19 -70 21 -82 2 -11 8 -38 13 -60 5 -22 12 -49 14 -61 3 -11 19
-79 37 -150 17 -71 33 -136 35 -144 2 -8 22 -89 44 -180 23 -91 43 -174 46
-185 9 -49 17 -83 26 -120 26 -105 49 -201 49 -211 0 -6 -35 -34 -79 -63 -80
-52 -230 -192 -289 -267 -75 -97 -136 -201 -170 -289 -10 -27 -23 -59 -27 -70
-10 -24 -8 -18 -24 -75 -14 -50 -19 -68 -27 -120 -3 -19 -7 -36 -9 -38 -2 -2
-34 3 -71 11 -94 20 -303 65 -334 71 -14 3 -45 10 -70 16 -25 5 -56 12 -70 15
-29 6 -56 12 -85 18 -11 3 -67 15 -125 27 -133 28 -122 26 -210 45 -75 17
-104 23 -128 24 -9 1 -10 14 -6 49 20 140 -18 327 -90 441 -14 22 -26 43 -26
46 0 3 -9 16 -21 28 -37 39 -40 52 -17 77 11 12 56 65 100 118 100 121 136
165 218 262 36 43 79 95 97 116 17 22 39 49 50 61 10 12 25 30 33 40 44 53
107 129 123 147 34 40 182 218 202 244 6 7 17 21 26 30 9 9 82 97 162 194
l146 177 60 -24 c33 -14 81 -30 108 -36z m3379 -33 c52 -10 114 -30 114 -38 0
-4 5 -8 10 -8 29 0 113 -76 161 -146 75 -110 86 -283 23 -381 -8 -13 -12 -23
-8 -23 3 0 -6 -15 -20 -32 -106 -132 -206 -181 -356 -173 -36 2 -65 4 -65 5 0
1 -10 3 -23 6 -81 15 -210 121 -249 204 -54 117 -57 256 -8 357 34 70 115 152
181 186 50 25 187 59 205 51 3 -2 19 -5 35 -8z m-533 -948 c18 -12 35 -26 38
-31 14 -20 172 -99 237 -118 23 -6 42 -17 42 -23 1 -15 1 -2252 0 -2301 0 -40
-1 -41 -47 -53 -42 -12 -70 -24 -175 -79 -27 -14 -33 -11 -285 158 -142 95
-279 188 -305 206 -26 18 -50 33 -53 33 -3 0 -13 7 -24 16 -21 18 -23 12 41
112 63 99 131 267 160 397 26 111 33 354 14 463 -7 39 -11 72 -8 72 2 0 0 6
-5 13 -6 6 -14 30 -17 51 -11 57 -77 223 -120 301 -21 37 -67 105 -102 152
-35 46 -64 86 -64 88 0 3 201 181 248 221 13 10 38 33 55 49 18 17 50 46 72
65 111 95 183 158 219 192 23 21 43 38 44 38 2 0 18 -10 35 -22z m-4613 -464
c198 -79 313 -279 269 -468 -26 -113 -116 -229 -218 -281 -178 -90 -451 -4
-526 166 -11 24 -22 46 -26 49 -9 7 -19 66 -24 140 -7 119 33 218 123 302 45
42 152 107 152 92 0 -4 7 -1 15 6 8 7 15 10 15 7 0 -3 12 -2 28 2 43 13 143 5
192 -15z m3125 12 c17 -3 40 -9 53 -11 48 -11 59 -14 122 -36 145 -50 283
-141 387 -254 281 -307 341 -749 150 -1105 -16 -30 -36 -67 -44 -82 -8 -16
-18 -28 -22 -28 -4 0 -12 -10 -18 -23 -6 -12 -42 -56 -81 -98 -139 -149 -341
-259 -523 -285 -114 -16 -331 -8 -392 15 -14 5 -28 7 -31 4 -3 -3 -13 0 -22 8
-10 8 -20 13 -23 13 -18 -4 -169 57 -182 73 -6 7 -16 13 -21 13 -17 0 -129 84
-184 137 -115 114 -200 258 -248 425 -49 169 -53 350 -11 512 25 100 90 256
107 256 5 0 7 4 4 9 -4 5 -2 11 2 13 4 1 22 23 39 48 128 187 422 367 644 395
30 4 55 8 57 9 5 6 209 -1 237 -8z m-2634 -839 c23 -5 126 -27 309 -67 25 -5
54 -11 65 -13 85 -17 101 -21 105 -22 15 -3 86 -19 95 -21 6 -1 12 -3 15 -4 3
-1 14 -3 25 -5 11 -2 43 -8 70 -14 28 -6 61 -14 75 -16 14 -3 36 -8 50 -11 14
-3 36 -8 50 -10 14 -3 41 -9 60 -14 19 -5 46 -11 60 -14 90 -17 212 -44 216
-48 2 -3 9 -31 14 -64 36 -210 118 -411 231 -567 l49 -67 -42 -47 c-24 -26
-47 -53 -53 -59 -48 -53 -138 -154 -155 -173 -11 -14 -52 -59 -90 -101 -38
-42 -77 -85 -87 -96 -87 -99 -153 -173 -180 -201 -18 -19 -33 -35 -33 -38 0
-2 -21 -26 -48 -55 l-47 -51 -65 21 c-110 35 -213 44 -322 27 -71 -10 -62 -18
-119 108 -20 44 -55 120 -78 168 -22 49 -41 90 -41 92 0 2 -16 39 -36 82 -20
43 -69 151 -110 240 -40 89 -86 190 -102 225 -16 35 -42 90 -57 123 -113 249
-183 401 -196 426 -7 14 5 23 64 52 40 19 86 46 102 61 17 14 33 26 37 26 10
0 128 122 128 133 0 4 4 6 8 3 5 -3 19 -7 33 -9z m3370 -1167 c32 -22 63 -40
69 -40 5 0 10 -4 10 -8 0 -4 25 -23 56 -42 31 -19 62 -39 68 -44 6 -6 98 -68
204 -139 l192 -127 -24 -48 c-25 -49 -52 -142 -60 -203 -3 -19 -5 -36 -6 -39
-4 -13 -1 -150 3 -158 13 -19 -13 -32 -78 -36 -39 -3 -95 -8 -125 -10 -157
-13 -209 -18 -245 -21 -36 -3 -78 -7 -245 -21 -30 -3 -80 -6 -110 -9 -30 -2
-75 -6 -100 -9 -25 -3 -81 -8 -125 -11 -44 -3 -96 -8 -115 -10 -19 -2 -71 -6
-115 -9 -44 -4 -98 -9 -120 -11 -22 -3 -76 -7 -120 -10 -44 -3 -91 -8 -105
-10 -14 -2 -70 -6 -125 -10 -55 -4 -114 -8 -130 -11 -17 -2 -59 -6 -95 -8 -36
-3 -96 -8 -135 -11 -117 -11 -147 -13 -230 -20 -44 -3 -93 -8 -110 -10 -45 -6
-205 -18 -243 -19 -32 -1 -34 1 -61 70 -31 80 -59 130 -107 189 l-32 40 41 46
c23 25 74 81 112 124 39 43 81 90 94 104 24 26 114 129 148 167 10 12 51 57
91 101 39 44 87 98 106 119 19 22 54 61 78 87 l43 48 45 -29 c25 -15 70 -41
100 -56 30 -16 67 -35 82 -42 25 -13 133 -51 168 -59 8 -2 27 -8 43 -14 15 -6
27 -8 27 -6 0 2 10 1 23 -4 59 -23 264 -37 392 -27 61 5 98 11 200 31 12 3 45
13 75 23 30 11 62 21 70 23 46 13 222 109 283 155 40 30 74 54 76 54 2 0 30
-18 62 -40z m1383 -393 c60 -28 82 -44 143 -107 36 -37 83 -113 89 -142 1 -5
2 -9 4 -10 6 -8 12 -50 14 -106 5 -113 -47 -227 -142 -312 -78 -70 -143 -93
-257 -92 -167 1 -293 76 -364 216 -31 63 -35 87 -36 196 0 83 3 102 27 153 45
95 171 203 262 223 108 25 175 20 260 -19z m-4194 -493 c14 -4 30 -8 36 -10
30 -6 112 -63 159 -109 44 -44 86 -113 110 -180 14 -37 14 -136 0 -190 -17
-62 -44 -114 -91 -172 -127 -155 -364 -182 -540 -62 -86 59 -151 176 -160 289
-3 35 -8 68 -10 72 -3 5 -2 8 3 8 4 0 9 16 10 35 3 60 60 165 118 216 64 57
156 101 235 111 33 5 99 0 130 -8z"/>
</g>
</svg>
