<svg id="Layer_1" data-name="Layer 1" xmlns="http://www.w3.org/2000/svg" viewBox="0 0 83.1 85.67"><defs><style>.cls-1{fill:none;stroke:#000;stroke-miterlimit:10;stroke-width:4px;}</style></defs><title>logo</title><path class="cls-1" d="M46.77,12A7.07,7.07,0,1,1,39.7,4.92,7.07,7.07,0,0,1,46.77,12Zm5.79,24.44A14.15,14.15,0,1,0,66.71,50.58,14.15,14.15,0,0,0,52.56,36.43ZM78.93,19.07A7.07,7.07,0,1,0,86,26.14,7.07,7.07,0,0,0,78.93,19.07ZM14,36.43A7.07,7.07,0,1,0,21,43.51,7.07,7.07,0,0,0,14,36.43ZM78.93,66A7.07,7.07,0,1,0,86,73.09,7.07,7.07,0,0,0,78.93,66ZM27.48,72.45a7.07,7.07,0,1,0,7.07,7.07A7.07,7.07,0,0,0,27.48,72.45Zm7.72-55.31L18.11,37.64M72.61,76.26,34.55,79.52M78.93,66V33.22M46.77,12,72.49,22.93M14,50.58,24.26,73.09m18-54,4.5,18.65m14.79,1.93,11.22-9.87m1,38.16L62.7,60.54M31.43,73.69,42.91,60.87M20.4,46.72l18,3.86" transform="translate(-4.9 -2.92)"/></svg>