<svg id="Layer_1" data-name="Layer 1" xmlns="http://www.w3.org/2000/svg" viewBox="0 0 774.13 189.2"><defs><style>.cls-1{font-size:152.22px;font-family:TwCenMT-CondensedExtraBold, Tw Cen MT Condensed Extra Bold;}.cls-2{fill:none;stroke:#000;stroke-miterlimit:10;stroke-width:7px;}</style></defs><title>logo-lg</title><text class="cls-1" transform="translate(202.18 148.32)">UNIZONN</text><path class="cls-2" d="M122.32,132.16A14.16,14.16,0,1,1,108.16,118,14.16,14.16,0,0,1,122.32,132.16Zm11.59,48.92a28.32,28.32,0,1,0,28.32,28.32A28.32,28.32,0,0,0,133.91,181.08Zm52.78-34.76a14.16,14.16,0,1,0,14.16,14.16A14.16,14.16,0,0,0,186.69,146.32Zm-130,34.76a14.16,14.16,0,1,0,14.16,14.16A14.16,14.16,0,0,0,56.66,181.08Zm130,59.22a14.16,14.16,0,1,0,14.16,14.16A14.16,14.16,0,0,0,186.69,240.3Zm-103,12.87a14.16,14.16,0,1,0,14.16,14.16A14.16,14.16,0,0,0,83.7,253.18ZM99.15,142.46,67,181.08M172.53,260.9l-74.67,6.44m88.83-27V174.65m-64.37-42.48L173.81,154M56.66,209.41l20.6,45.06m36-108.14,9,37.33m29.61,3.86,20.6-18m3.86,74.67-19.31-12.87M94,253.18,114.59,230M69.54,201.68l36,7.72" transform="translate(-39 -114.5)"/></svg>