<?xml version="1.0" encoding="utf-8"?>
<!-- Generator: Adobe Illustrator 16.0.0, SVG Export Plug-In . SVG Version: 6.00 Build 0)  -->
<!DOCTYPE svg PUBLIC "-//W3C//DTD SVG 1.0//EN" "http://www.w3.org/TR/2001/REC-SVG-20010904/DTD/svg10.dtd">
<svg version="1.0" id="Layer_1" xmlns="http://www.w3.org/2000/svg" xmlns:xlink="http://www.w3.org/1999/xlink" x="0px" y="0px"
	 width="1700px" height="1700px" viewBox="0 -350 1700 1700" enable-background="new 0 -350 1700 1700" xml:space="preserve">
<g id="Vexels">
</g>
<g>
	<path fill="#29BDF4" d="M1392.215,1309.246c0-3.314-0.312-6.559-0.877-9.717H1239.33c-22.594,0-41.08-18.486-41.08-41.079
		c0-1.404,0.072-2.793,0.211-4.162h-1.607c-30.172,0-54.631-24.029-54.631-54.2c0-30.174,24.459-54.198,54.631-54.198h331.281
		c15.046,0,28.67-6.084,38.55-15.925h-11.888c-22.594,0-41.08-18.486-41.08-41.081c0-22.594,18.486-41.08,41.08-41.08h6.979
		c-9.361-7.399-21.155-11.841-33.944-11.841h-142.174c-30.172,0-54.631-24.183-54.631-54.354v0.293
		c0-30.172-24.459-54.335-54.631-54.335h-254.359c-30.172,0-54.633-24.459-54.633-54.631v-0.408
		c0-30.188,24.697-54.885,54.883-54.885H688.393c-30.186,0-54.883,24.697-54.883,54.885v0.408c0,0.628,0.026,1.249,0.047,1.871
		c4.446-1.179,9.108-1.813,13.912-1.813h164.888c30.027,0,54.595,24.553,54.626,54.573h75.519c30.172,0,54.629,24.163,54.629,54.335
		v-0.293c0,30.171,24.461,54.354,54.633,54.354h142.174c30.215,0,54.934,24.723,54.934,54.938v0.358
		c0,30.172-24.461,54.631-54.633,54.631H884.189c0.182,1.806,0.277,3.637,0.277,5.488c0,30.047-24.582,54.629-54.629,54.629h-21.184
		c2.954,27.334,26.134,48.281,54.305,48.281h140.729c30.172,0,54.631,24.787,54.631,54.958c0,30.172-24.459,54.963-54.631,54.963
		h333.895C1367.754,1364.209,1392.215,1339.418,1392.215,1309.246z"/>
	<path fill="#29BDF4" d="M587.823-329.085v0.496c0,30.048-24.582,54.632-54.631,54.632h-53.729
		c-30.11,0-54.523,23.976-54.626,54.058c0.104,30.083,24.517,54.339,54.626,54.339h157.119c30.166,0,54.848,24.681,54.848,54.846
		v0.446c0,30.17-24.461,54.629-54.632,54.629h333.897c30.172,0,54.631-24.459,54.631-54.629v-0.446
		c0-30.165-24.682-54.846-54.848-54.846h-88.246c1.44,4.177,2.234,8.647,2.234,13.297c0,22.593-18.488,41.08-41.08,41.08h-55.939
		c-22.595,0-41.081-18.486-41.081-41.08c0-15.829,9.079-29.631,22.282-36.484c-6.21-8.813-9.877-19.545-9.917-31.152
		c0.104-30.082,24.519-54.058,54.627-54.058h53.73c30.047,0,54.633-24.584,54.633-54.632v-0.496
		c0.002-30.142-24.658-54.801-54.797-54.801H533.03C563.167-383.886,587.825-359.227,587.823-329.085z"/>
	<path fill="#29BDF4" d="M307.158-1.927h-44.269c-5.395,0-10.608-0.804-15.54-2.279c-0.046,0.895-0.068,1.795-0.071,2.701
		c0.089,30.095,24.51,54.264,54.627,54.264h254.093c30.194,0,54.897,24.704,54.897,54.896v0.397c0,30.17,24.458,54.63,54.63,54.63
		h142.477c30.126,0,54.552,24.103,54.628,54.208c0-0.047,0.004-0.094,0.004-0.141v0.282c0-0.047-0.004-0.094-0.004-0.141
		c-0.076,30.106-24.502,54.187-54.628,54.187H595.052c-9.84,14.555-26.494,24.171-45.286,24.171h-74.387
		c-12.542,0-24.123-4.294-33.37-11.47c-12.148,10.1-19.918,25.31-19.918,42.248v0.345c0,30.17,24.458,54.629,54.632,54.629h141.198
		c30.14,0,54.574,24.435,54.574,54.575c0,30.568,24.781,55.349,55.351,55.349h333.894c-30.568,0-55.35-24.781-55.35-55.349
		c0-30.14-24.434-54.575-54.572-54.575h-68.696c0.875,3.323,1.345,6.805,1.345,10.393c0,22.595-18.488,41.081-41.08,41.081h-55.939
		c-22.595,0-41.081-18.486-41.081-41.081c0-14.444,7.563-27.2,18.917-34.53c-5.87-8.709-9.297-19.2-9.297-30.492v-0.345
		c0-30.222,24.727-54.949,54.949-54.949h191.318c-0.43-2.37-0.666-4.805-0.666-7.294c0-22.594,18.486-41.08,41.08-41.08H1196.2
		c0.207-1.909,0.32-3.847,0.325-5.812c-0.076-30.106-24.5-54.208-54.627-54.208H999.422c-30.172,0-54.631-24.46-54.631-54.63v-0.397
		c0-30.193-24.703-54.896-54.895-54.896H635.799c-30.116,0-54.537-24.169-54.626-54.264c0.089-30.094,24.511-54.134,54.626-54.134
		H361.763C361.267-26.013,336.896-1.927,307.158-1.927z"/>
	<path fill="#29BDF4" d="M1248.866,544.962c0-0.066,0.005-0.132,0.005-0.198v0.396
		C1248.871,545.094,1248.866,545.028,1248.866,544.962c-0.107,30.08-24.522,54.36-54.628,54.36H979.282
		c0.86,3.834,1.329,7.812,1.329,11.896c0,30.045-24.582,54.628-54.627,54.628h-52.688c5.18,24.784,27.15,43.401,53.471,43.401
		h157.338c30.113,0,54.532,24.023,54.627,54.112c0-0.058,0.004-0.114,0.004-0.173v0.347c0-0.059-0.004-0.115-0.004-0.174
		c-0.095,30.092-24.514,54.284-54.627,54.284H1418c30.111,0,54.532-24.192,54.627-54.284c-0.095-30.089-24.516-54.112-54.627-54.112
		h-23.37c0.179,1.548,0.28,3.117,0.28,4.711c0,22.595-18.486,41.081-41.08,41.081h-55.939c-22.594,0-41.08-18.486-41.08-41.081
		c0-1.638,0.108-3.25,0.297-4.839c-28.513-1.834-51.076-25.526-51.076-54.502v-0.46c0-30.161,24.676-54.835,54.834-54.835h267.27
		c30.105,0,54.519-24.28,54.626-54.36c-0.107-30.078-24.521-54.037-54.626-54.037h-333.896
		C1224.344,490.925,1248.759,514.884,1248.866,544.962z"/>
	<path fill="#29BDF4" d="M1582.766,544.764c0,0.066-0.005,0.132-0.005,0.198s0.005,0.132,0.005,0.198V544.764z"/>
	<path fill="#29BDF4" d="M1472.631,763.187c0,0.059-0.004,0.115-0.004,0.173c0,0.059,0.004,0.115,0.004,0.174V763.187z"/>
	<path fill="#29BDF4" d="M1196.529,216.75c0,0.047-0.004,0.094-0.004,0.141s0.004,0.094,0.004,0.141V216.75z"/>
	<path fill="#29CCE2" d="M1138.736,763.187c0,0.059-0.004,0.115-0.004,0.173c0,0.059,0.004,0.115,0.004,0.174V763.187z"/>
	<path fill="#29CCE2" d="M862.635,216.75c0,0.047-0.004,0.094-0.004,0.141s0.004,0.094,0.004,0.141V216.75z"/>
	<path fill="#29CCE2" d="M1058.318,1309.246c0-30.171-24.459-54.958-54.631-54.958H862.959c-28.171,0-51.351-20.947-54.305-48.281
		h-7.659c-30.045,0-54.628-24.582-54.628-54.629c0-30.045,24.583-54.627,54.628-54.627h28.843c28.195,0,51.576,21.646,54.352,49.139
		h310.049c30.172,0,54.633-24.459,54.633-54.631v-0.358c0-30.215-24.719-54.938-54.934-54.938h-142.174
		c-30.172,0-54.633-24.183-54.633-54.354v0.293c0-30.172-24.457-54.335-54.629-54.335h-75.519c0,0.019,0.001,0.037,0.001,0.056
		c0,30.045-24.582,54.627-54.627,54.627H647.469c-30.045,0-54.627-24.582-54.627-54.627c0-25.242,17.354-46.621,40.715-52.815
		c-0.021-0.622-0.047-1.243-0.047-1.871v-0.408c0-30.188,24.697-54.885,54.883-54.885h333.894h61.818
		c30.113,0,54.532-24.192,54.627-54.284c-0.095-30.089-24.514-54.112-54.627-54.112H926.768c-26.32,0-48.291-18.617-53.471-43.401
		h-72.302c-30.045,0-54.628-24.583-54.628-54.628c0-30.046,24.583-54.629,54.628-54.629h124.99c25.961,0,47.829,18.36,53.298,42.733
		h214.956c30.105,0,54.521-24.28,54.628-54.36c-0.107-30.078-24.522-54.037-54.628-54.037H1061.74H727.846
		c-30.569,0-55.351-24.781-55.351-55.349c0-30.14-24.435-54.575-54.574-54.575H476.724c-30.174,0-54.632-24.459-54.632-54.629
		v-0.345c0-16.938,7.77-32.147,19.918-42.248c-12.906-10.015-21.258-25.654-21.258-43.158c0-30.046,24.583-54.628,54.627-54.628
		h74.387c30.045,0,54.628,24.583,54.628,54.628c0,11.254-3.45,21.74-9.342,30.457h212.951c30.126,0,54.552-24.08,54.628-54.187
		c-0.076-30.106-24.502-54.208-54.628-54.208H665.526c-30.172,0-54.63-24.46-54.63-54.63v-0.397
		c0-30.193-24.703-54.896-54.897-54.896H301.905c-30.117,0-54.538-24.169-54.627-54.264c0.002-0.906,0.024-1.807,0.071-2.701
		c-22.536-6.737-39.088-27.699-39.088-52.349c0-30.046,24.584-54.628,54.628-54.628h44.269c30.046,0,54.628,24.584,54.628,54.628
		c0,0.307-0.018,0.61-0.023,0.916h274.037h0.999c30.171,0,54.632-24.459,54.632-54.629v-0.446c0-30.165-24.682-54.846-54.848-54.846
		H479.463c-30.11,0-54.523-24.256-54.626-54.339c0.104-30.082,24.517-54.058,54.626-54.058h53.729
		c30.049,0,54.631-24.584,54.631-54.632v-0.496c0.002-30.142-24.656-54.801-54.793-54.801H-43.562v9.559
		c14.449,9.894,23.98,26.506,23.98,45.242v0.496c0,18.709-9.534,35.296-23.98,45.153v75.646h36.383
		c25.765,0,47.033,19.188,50.331,44.052c23.452,6.222,40.871,27.684,40.871,53.022v0.446c0,30.17-24.46,54.629-54.632,54.629
		h-72.953V53.332c26.51,3.837,47.053,26.793,47.053,54.323v0.397c0,30.17,24.457,54.63,54.629,54.63h142.477
		c30.126,0,54.552,24.103,54.628,54.208c0-0.047,0.003-0.094,0.003-0.141v0.282c0-0.047-0.003-0.094-0.003-0.141
		c-0.077,30.106-24.502,54.187-54.628,54.187H-43.562v109.923h54.079c30.139,0,54.573,24.435,54.573,54.575
		c0,30.568,24.782,55.349,55.35,55.349h466.396c30.105,0,54.517,23.959,54.624,54.037c0-0.066,0.005-0.132,0.005-0.198v0.396
		c0-0.066-0.005-0.132-0.005-0.198c-0.107,30.08-24.519,54.36-54.624,54.36H319.564c-30.158,0-54.835,24.674-54.833,54.835v0.46
		c0,30.172,24.458,54.63,54.633,54.63H476.7c30.114,0,54.532,24.023,54.626,54.112c0-0.058,0.004-0.114,0.004-0.173v0.347
		c0-0.059-0.004-0.115-0.004-0.174c-0.094,30.092-24.513,54.284-54.626,54.284h-72.103c-2.277,25.947-24.048,46.3-50.584,46.3
		h-72.763c-26.535,0-48.305-20.353-50.58-46.3H80.988c-30.186,0-54.883,24.697-54.883,54.885v0.408
		c0,30.172,24.457,54.631,54.629,54.631h254.361c30.172,0,54.631,24.163,54.631,54.335v-0.293c0,30.171,24.456,54.354,54.63,54.354
		h142.174c30.211,0,54.934,24.723,54.934,54.938v0.358c0,30.172-24.458,54.631-54.63,54.631H255.551
		c-30.171,0-54.631,24.024-54.631,54.198c0,30.171,24.46,54.2,54.631,54.2h140.73c30.172,0,54.63,24.787,54.63,54.958
		c0,30.172-24.458,54.963-54.63,54.963h607.406C1033.859,1364.209,1058.318,1339.418,1058.318,1309.246z"/>
	<path fill="#29CCE2" d="M1248.871,544.764c0,0.066-0.005,0.132-0.005,0.198s0.005,0.132,0.005,0.198V544.764z"/>
	<path fill="#51A5DC" d="M450.912,1309.246c0-30.171-24.458-54.958-54.63-54.958h-140.73c-30.171,0-54.631-24.029-54.631-54.2
		c0-30.174,24.46-54.198,54.631-54.198h331.283c30.172,0,54.63-24.459,54.63-54.631v-0.358c0-30.215-24.723-54.938-54.934-54.938
		H444.356c-30.174,0-54.63-24.183-54.63-54.354v0.293c0-30.172-24.459-54.335-54.631-54.335H80.734
		c-30.172,0-54.629-24.459-54.629-54.631v-0.408c0-30.188,24.697-54.885,54.883-54.885h149.682c-0.13-1.481-0.209-2.978-0.209-4.492
		c0-28.051,22.739-50.79,50.789-50.79h72.763c28.051,0,50.793,22.739,50.793,50.79c0,1.515-0.079,3.011-0.209,4.492H476.7
		c30.114,0,54.532-24.192,54.626-54.284c-0.094-30.089-24.513-54.112-54.626-54.112H319.364c-30.175,0-54.633-24.458-54.633-54.63
		v-0.46c-0.002-30.161,24.675-54.835,54.833-54.835h267.272c30.105,0,54.517-24.28,54.624-54.36
		c-0.107-30.078-24.519-54.037-54.624-54.037H120.44c-30.568,0-55.35-24.781-55.35-55.349c0-30.14-24.435-54.575-54.573-54.575
		h-54.079v497.446c0,0.014,0.001,0.026,0.001,0.039s-0.001,0.025-0.001,0.039v274.771c7.863-4.996,17.186-7.901,27.192-7.901h72.763
		c28.051,0,50.792,22.739,50.792,50.79c-0.003,28.051-22.74,50.792-50.792,50.792H-16.37c-10.006,0-19.329-2.905-27.192-7.902
		v125.134h439.843C426.454,1364.209,450.912,1339.418,450.912,1309.246z"/>
	<path fill="#51A5DC" d="M-19.582-328.589v-0.496c0-18.736-9.531-35.348-23.98-45.242v90.891
		C-29.115-293.293-19.582-309.88-19.582-328.589z"/>
	<path fill="#51A5DC" d="M641.465,544.764c0,0.066-0.005,0.132-0.005,0.198s0.005,0.132,0.005,0.198V544.764z"/>
	<path fill="#51A5DC" d="M255.229,216.75c0,0.047-0.003,0.094-0.003,0.141s0.003,0.094,0.003,0.141V216.75z"/>
	<path fill="#51A5DC" d="M255.226,216.891c-0.077-30.106-24.502-54.208-54.628-54.208H58.121c-30.172,0-54.629-24.46-54.629-54.63
		v-0.397c0-27.53-20.543-50.486-47.053-54.323v217.746h244.159C230.724,271.078,255.149,246.998,255.226,216.891z"/>
	<path fill="#51A5DC" d="M84.023-110.269v-0.446c0-25.339-17.418-46.801-40.871-53.022c0.293,2.207,0.459,4.454,0.459,6.74
		c-0.001,28.051-22.74,50.791-50.79,50.791h-36.383v50.567h72.953C59.563-55.639,84.023-80.098,84.023-110.269z"/>
	<path fill="#51A5DC" d="M531.331,763.187c0,0.059-0.004,0.115-0.004,0.173c0,0.059,0.004,0.115,0.004,0.174V763.187z"/>
	<path fill="#29CCE2" d="M1001.588,263.783c0,2.489,0.236,4.924,0.666,7.294c3.47,19.144,20.31,33.786,40.414,33.786h173.063
		c22.594,0,41.08-18.486,41.08-41.08s-18.486-41.08-41.08-41.08h-19.53h-153.532
		C1020.074,222.703,1001.588,241.189,1001.588,263.783z"/>
	<path fill="#29CCE2" d="M1239.33,1299.529h152.008h21.053c22.594,0,41.082-18.486,41.082-41.079
		c0-22.595-18.488-41.081-41.082-41.081H1239.33c-21.189,0-38.766,16.26-40.869,36.919c-0.139,1.369-0.211,2.758-0.211,4.162
		C1198.25,1281.043,1216.736,1299.529,1239.33,1299.529z"/>
	<path fill="#29CCE2" d="M746.367-152.263c0,22.593,18.486,41.08,41.081,41.08h55.939c22.592,0,41.08-18.486,41.08-41.08
		c0-4.65-0.794-9.121-2.234-13.297c-5.561-16.118-20.903-27.783-38.846-27.783h-55.939c-6.766,0-13.157,1.667-18.799,4.597
		C755.446-181.895,746.367-168.092,746.367-152.263z"/>
	<path fill="#29CCE2" d="M746.367,391.394c0,22.595,18.486,41.081,41.081,41.081h55.939c22.592,0,41.08-18.486,41.08-41.081
		c0-3.587-0.47-7.07-1.345-10.393c-4.634-17.604-20.73-30.687-39.735-30.687h-55.939c-8.149,0-15.758,2.415-22.164,6.55
		C753.929,364.193,746.367,376.949,746.367,391.394z"/>
	<path fill="#FFFCFF" d="M-43.562,878.447v0.078c0-0.014,0.001-0.026,0.001-0.039S-43.562,878.461-43.562,878.447z"/>
	<path fill="#FFFCFF" d="M354.012,762.361h-72.763c-28.049,0-50.789,22.739-50.789,50.79c0,1.515,0.079,3.011,0.209,4.492
		c2.275,25.947,24.045,46.3,50.58,46.3h72.763c26.537,0,48.307-20.353,50.584-46.3c0.13-1.481,0.209-2.978,0.209-4.492
		C404.806,785.101,382.063,762.361,354.012,762.361z"/>
	<path fill="#FFFCFF" d="M56.394,1246.978c28.051,0,50.789-22.741,50.792-50.792c0-28.051-22.74-50.79-50.792-50.79H-16.37
		c-10.006,0-19.329,2.905-27.192,7.901v85.778c7.863,4.997,17.186,7.902,27.192,7.902H56.394z"/>
	<path fill="#FFFCFF" d="M43.611-156.997c0-2.287-0.166-4.533-0.459-6.74c-3.298-24.863-24.566-44.052-50.331-44.052h-36.383
		v101.583h36.383C20.871-106.206,43.61-128.946,43.611-156.997z"/>
	<path fill="#29CCE2" d="M1297.891,755.039h55.939c22.594,0,41.08-18.486,41.08-41.081c0-1.594-0.102-3.163-0.28-4.711
		c-2.357-20.397-19.799-36.368-40.8-36.368h-55.939c-20.957,0-38.368,15.904-40.783,36.24c-0.188,1.589-0.297,3.201-0.297,4.839
		C1256.811,736.553,1275.297,755.039,1297.891,755.039z"/>
	<path fill="#29CCE2" d="M1513.717,1088.884c0,22.595,18.486,41.081,41.08,41.081h11.888h44.052c22.594,0,41.08-18.486,41.08-41.081
		c0-22.594-18.486-41.08-41.08-41.08h-48.96h-6.979C1532.203,1047.804,1513.717,1066.29,1513.717,1088.884z"/>
	<path fill="#51A5DC" d="M549.766,295.249c18.792,0,35.446-9.617,45.286-24.171c5.893-8.716,9.342-19.203,9.342-30.457
		c0-30.044-24.583-54.628-54.628-54.628h-74.387c-30.045,0-54.627,24.582-54.627,54.628c0,17.504,8.352,33.143,21.258,43.158
		c9.247,7.176,20.828,11.47,33.37,11.47H549.766z"/>
	<path fill="#51A5DC" d="M829.838,1096.751h-28.843c-30.045,0-54.628,24.582-54.628,54.627c0,30.047,24.583,54.629,54.628,54.629
		h7.659h21.184c30.047,0,54.629-24.582,54.629-54.629c0-1.852-0.096-3.683-0.277-5.488
		C881.414,1118.396,858.033,1096.751,829.838,1096.751z"/>
	<path fill="#51A5DC" d="M980.611,611.218c0-4.084-0.469-8.062-1.329-11.896c-5.469-24.373-27.337-42.733-53.298-42.733h-124.99
		c-30.045,0-54.628,24.583-54.628,54.629c0,30.045,24.583,54.628,54.628,54.628h72.302h52.688
		C956.029,665.846,980.611,641.263,980.611,611.218z"/>
	<path fill="#51A5DC" d="M307.158-1.927c29.739,0,54.109-24.085,54.605-53.712c0.005-0.306,0.023-0.609,0.023-0.916
		c0-30.044-24.583-54.628-54.628-54.628h-44.269c-30.043,0-54.628,24.582-54.628,54.628c0,24.65,16.552,45.612,39.088,52.349
		c4.932,1.475,10.146,2.279,15.54,2.279H307.158z"/>
	<path fill="#51A5DC" d="M592.842,927.623c0,30.045,24.582,54.627,54.627,54.627h164.888c30.045,0,54.627-24.582,54.627-54.627
		c0-0.019-0.001-0.037-0.001-0.056c-0.031-30.021-24.6-54.573-54.626-54.573H647.469c-4.804,0-9.465,0.635-13.912,1.813
		C610.196,881.002,592.842,902.381,592.842,927.623z"/>
</g>
</svg>
