<?xml version="1.0" encoding="utf-8"?>
<!-- Generator: Adobe Illustrator 19.1.1, SVG Export Plug-In . SVG Version: 6.00 Build 0)  -->
<svg version="1.1" xmlns="http://www.w3.org/2000/svg" xmlns:xlink="http://www.w3.org/1999/xlink" x="0px" y="0px"
	 viewBox="0 0 1700 1000" enable-background="new 0 0 1700 1000" xml:space="preserve">
<g id="background">
	<g>
		<g>
			<g>
				
					<text transform="matrix(1 0 0 1 981.9998 187.2499)" fill="#4672AE" font-family="'Quicksand-Bold'" font-size="87.1735px" letter-spacing="22">ABSTRACT</text>
			</g>
			<g>
				
					<text transform="matrix(1 0 0 1 981.9998 230.7656)" fill="#29BDF4" stroke="#29BDF4" stroke-width="3" stroke-linecap="round" stroke-linejoin="round" stroke-miterlimit="10" font-family="'Quicksand-Regular'" font-size="37.4781px" letter-spacing="36">BACKGROUND</text>
			</g>
		</g>
		<g>
			<path fill="#29BDF4" d="M987.32,562.445h152.892c17.26,0,31.252-13.95,31.252-31.21v0.226c0-17.26-13.992-31.025-31.252-31.025
				H873.41c-17.487,0-31.663-14.176-31.663-31.663v0c0-17.242-13.977-31.219-31.219-31.219h-80.773
				c-17.26,0-31.252-13.992-31.252-31.252v-0.198c0-17.288,14.145-31.433,31.433-31.433h189.328
				c17.26,0,31.252-13.818,31.252-31.078v0.161c0-17.26-13.992-31.091-31.252-31.091h-81.504c-17.26,0-31.252-13.992-31.252-31.252
				v-0.226c0-17.272-14.132-31.404-31.404-31.404H629.75c-17.26,0-31.252-13.876-31.252-31.136v0.189
				c0-17.26,13.992-31.062,31.252-31.062h191.577c17.26,0,31.252-13.992,31.252-31.252v-0.255c0-17.256-14.119-31.375-31.375-31.375
				h-89.881c-17.26,0-31.252-13.934-31.252-31.194v0.218c0-17.26,13.992-31.033,31.252-31.033h30.737
				c17.188,0,31.252-14.063,31.252-31.252v-0.284C793.311,14.106,779.205,0,761.965,0H0v62.503v62.503v62.503v62.503v62.503v62.503
				v62.503v62.914l0,0v62.092v62.503v62.503v62.503v62.503v62.503v62.503V1000h1031.207c17.26,0,31.251-14.181,31.251-31.441l0,0
				c0-17.26-13.992-31.441-31.251-31.441h-80.504c-17.26,0-31.252-13.745-31.252-31.004l0,0c0-17.26,13.992-31.004,31.252-31.004
				h189.51c17.26,0,31.252-13.992,31.252-31.252v-0.206c0-17.284-14.141-31.425-31.425-31.425h-81.331
				c-17.26,0-31.251-13.835-31.251-31.094v0.169c0-17.26-13.992-31.083-31.252-31.083H850.697c-17.26,0-31.252-13.992-31.252-31.252
				v-0.235c0-17.268,14.128-31.396,31.396-31.396h226.367c17.26,0,31.251-13.892,31.251-31.152v0.198
				c0-17.26-13.992-31.054-31.251-31.054h-90.005c-17.26,0-31.252-13.992-31.252-31.252v-0.263
				C955.952,576.561,970.068,562.445,987.32,562.445z"/>
			<path fill="#29CCE2" d="M796.314,562.445h152.892c17.26,0,31.252-13.95,31.252-31.21v0.226c0-17.26-13.992-31.025-31.252-31.025
				H682.405c-17.487,0-31.663-14.176-31.663-31.663v0c0-17.242-13.977-31.219-31.219-31.219H538.75
				c-17.26,0-31.252-13.992-31.252-31.252v-0.198c0-17.288,14.145-31.433,31.433-31.433h189.328
				c17.26,0,31.252-13.818,31.252-31.078v0.161c0-17.26-13.992-31.091-31.252-31.091h-81.504c-17.26,0-31.252-13.992-31.252-31.252
				v-0.226c0-17.272-14.132-31.404-31.404-31.404H438.745c-17.26,0-31.252-13.876-31.252-31.136v0.189
				c0-17.26,13.992-31.062,31.252-31.062h191.577c17.26,0,31.252-13.992,31.252-31.252v-0.255c0-17.256-14.119-31.375-31.375-31.375
				h-89.881c-17.26,0-31.252-13.934-31.252-31.194v0.218c0-17.26,13.992-31.033,31.252-31.033h30.737
				c17.188,0,31.252-14.063,31.252-31.252v-0.284C602.306,14.106,588.2,0,570.96,0H0v62.503v62.503v62.503v62.503v62.503v62.503
				v62.503v62.914l0,0v62.092v62.503v62.503v62.503v62.503v62.503v62.503V1000h840.201c17.26,0,31.252-14.181,31.252-31.441l0,0
				c0-17.26-13.992-31.441-31.252-31.441h-80.504c-17.26,0-31.252-13.745-31.252-31.004l0,0c0-17.26,13.992-31.004,31.252-31.004
				h189.51c17.26,0,31.252-13.992,31.252-31.252v-0.206c0-17.284-14.141-31.425-31.425-31.425h-81.331
				c-17.26,0-31.252-13.835-31.252-31.094v0.169c0-17.26-13.992-31.083-31.252-31.083H659.692c-17.26,0-31.252-13.992-31.252-31.252
				v-0.235c0-17.268,14.128-31.396,31.396-31.396h226.367c17.26,0,31.251-13.892,31.251-31.152v0.198
				c0-17.26-13.992-31.054-31.251-31.054h-90.005c-17.26,0-31.252-13.992-31.252-31.252v-0.263
				C764.947,576.561,779.062,562.445,796.314,562.445z"/>
			<path fill="#29CC86" d="M448.846,562.445h152.892c17.26,0,31.251-13.95,31.251-31.21v0.226c0-17.26-13.992-31.025-31.251-31.025
				H334.937c-17.487,0-31.663-14.176-31.663-31.663v0c0-17.242-13.977-31.219-31.219-31.219h-80.773
				c-17.26,0-31.252-13.992-31.252-31.252v-0.198c0-17.288,14.145-31.433,31.433-31.433h189.328
				c17.26,0,31.252-13.818,31.252-31.078v0.161c0-17.26-13.992-31.091-31.252-31.091h-81.504c-17.26,0-31.252-13.992-31.252-31.252
				v-0.226c0-17.272-14.132-31.404-31.404-31.404H91.277c-17.26,0-31.252-13.876-31.252-31.136v0.189
				c0-17.26,13.992-31.062,31.252-31.062h191.577c17.26,0,31.252-13.992,31.252-31.252v-0.255c0-17.256-14.119-31.375-31.375-31.375
				h-89.881c-17.26,0-31.252-13.934-31.252-31.194v0.218c0-17.26,13.992-31.033,31.252-31.033h30.737
				c17.188,0,31.252-14.063,31.252-31.252v-0.284C254.838,14.106,240.732,0,223.492,0H0v62.503v62.503v62.503v62.503v62.503v62.503
				v62.503v62.914l0,0v62.092v62.503v62.503v62.503v62.503v62.503v62.503V1000h492.733c17.26,0,31.252-14.181,31.252-31.441l0,0
				c0-17.26-13.992-31.441-31.252-31.441h-80.504c-17.26,0-31.252-13.745-31.252-31.004l0,0c0-17.26,13.992-31.004,31.252-31.004
				h189.51c17.26,0,31.251-13.992,31.251-31.252v-0.206c0-17.284-14.141-31.425-31.425-31.425h-81.331
				c-17.26,0-31.252-13.835-31.252-31.094v0.169c0-17.26-13.992-31.083-31.252-31.083H312.224c-17.26,0-31.252-13.992-31.252-31.252
				v-0.235c0-17.268,14.128-31.396,31.396-31.396h226.367c17.26,0,31.252-13.892,31.252-31.152v0.198
				c0-17.26-13.992-31.054-31.252-31.054h-90.005c-17.26,0-31.252-13.992-31.252-31.252v-0.263
				C417.479,576.561,431.595,562.445,448.846,562.445z"/>
			<path fill="#29CCE2" d="M961.5,394h-99c-12.925,0-23.5-10.575-23.5-23.5v0c0-12.925,10.575-23.5,23.5-23.5h99
				c12.925,0,23.5,10.575,23.5,23.5v0C985,383.425,974.425,394,961.5,394z"/>
			<path fill="#29CCE2" d="M1074,963h-99c-12.925,0-23.5-10.575-23.5-23.5l0,0c0-12.925,10.575-23.5,23.5-23.5h99
				c12.925,0,23.5,10.575,23.5,23.5l0,0C1097.5,952.425,1086.925,963,1074,963z"/>
			<path fill="#29CCE2" d="M748.5,156h-32c-12.925,0-23.5-10.575-23.5-23.5v0c0-12.925,10.575-23.5,23.5-23.5h32
				c12.925,0,23.5,10.575,23.5,23.5v0C772,145.425,761.425,156,748.5,156z"/>
			<path fill="#29CCE2" d="M748.5,467h-32c-12.925,0-23.5-10.575-23.5-23.5v0c0-12.925,10.575-23.5,23.5-23.5h32
				c12.925,0,23.5,10.575,23.5,23.5v0C772,456.425,761.425,467,748.5,467z"/>
			<path fill="#FFFCFF" d="M212.066,751.197H84.185c-16.046,0-29.055-13.008-29.055-29.055v0c0-16.046,13.008-29.055,29.055-29.055
				h127.881c16.046,0,29.055,13.008,29.055,29.055v0C241.121,738.189,228.112,751.197,212.066,751.197z"/>
			<path fill="#FFFCFF" d="M212.066,467.045h-41.624c-16.046,0-29.055-13.008-29.055-29.055v0c0-16.046,13.008-29.055,29.055-29.055
				h41.624c16.046,0,29.055,13.008,29.055,29.055v0C241.121,454.037,228.112,467.045,212.066,467.045z"/>
			<path fill="#FFFCFF" d="M468.553,713.823h-41.624c-16.046,0-29.055-13.008-29.055-29.055v0c0-16.046,13.008-29.055,29.055-29.055
				h41.624c16.046,0,29.055,13.008,29.055,29.055v0C497.608,700.814,484.6,713.823,468.553,713.823z"/>
			<path fill="#FFFCFF" d="M298.3,932.937h-41.624c-16.046,0-29.055-13.008-29.055-29.055v0c0-16.046,13.008-29.055,29.055-29.055
				H298.3c16.046,0,29.055,13.008,29.055,29.055v0C327.355,919.929,314.346,932.937,298.3,932.937z"/>
			<path fill="#FFFCFF" d="M261.933,158.847h-41.624c-16.046,0-29.055-13.008-29.055-29.055v0c0-16.046,13.008-29.055,29.055-29.055
				h41.624c16.046,0,29.055,13.008,29.055,29.055v0C290.987,145.839,277.979,158.847,261.933,158.847z"/>
			<path fill="#FFFCFF" d="M198.567,278.581h-96.383c-16.046,0-29.055-13.008-29.055-29.055v0c0-16.046,13.008-29.055,29.055-29.055
				h96.383c16.046,0,29.055,13.008,29.055,29.055v0C227.621,265.572,214.613,278.581,198.567,278.581z"/>
			<path fill="#29CCE2" d="M1040.5,651.523h-32c-12.925,0-23.5-10.575-23.5-23.5v0c0-12.925,10.575-23.5,23.5-23.5h32
				c12.925,0,23.5,10.575,23.5,23.5v0C1064,640.948,1053.425,651.523,1040.5,651.523z"/>
			<path fill="#29CCE2" d="M1187.464,866h-32c-12.925,0-23.5-10.575-23.5-23.5l0,0c0-12.925,10.575-23.5,23.5-23.5h32
				c12.925,0,23.5,10.575,23.5,23.5l0,0C1210.964,855.425,1200.388,866,1187.464,866z"/>
			<path fill="#29CC86" d="M580.535,388.5h-42.553c-17.187,0-31.25-14.063-31.25-31.25v0c0-17.187,14.063-31.25,31.25-31.25h42.553
				c17.188,0,31.25,14.063,31.25,31.25v0C611.785,374.438,597.722,388.5,580.535,388.5z"/>
			<path fill="#29CC86" d="M740.75,909.5h-16.5c-17.188,0-31.25-14.063-31.25-31.25v0c0-17.187,14.062-31.25,31.25-31.25h16.5
				c17.188,0,31.25,14.063,31.25,31.25v0C772,895.438,757.937,909.5,740.75,909.5z"/>
			<path fill="#29CC86" d="M795.75,600.5h-71.5c-17.188,0-31.25-14.063-31.25-31.25v0c0-17.187,14.062-31.25,31.25-31.25h71.5
				c17.188,0,31.25,14.063,31.25,31.25v0C827,586.438,812.937,600.5,795.75,600.5z"/>
			<path fill="#29CC86" d="M441.75,218.5h-25.324c-17.188,0-31.25-14.062-31.25-31.25v0c0-17.187,14.062-31.25,31.25-31.25h25.324
				c17.187,0,31.25,14.062,31.25,31.25v0C473,204.438,458.937,218.5,441.75,218.5z"/>
			<path fill="#29CC86" d="M730.75,781.5h-94.324c-17.187,0-31.25-14.063-31.25-31.25v0c0-17.187,14.063-31.25,31.25-31.25h94.324
				c17.188,0,31.25,14.063,31.25,31.25v0C762,767.438,747.937,781.5,730.75,781.5z"/>
		</g>
	</g>
</g>
<g id="Vexels">
	<g>
		<g>
			<path fill="#FFFFFF" d="M2527.897,335.484h-644.659c-10.94,0-19.81,8.87-19.81,19.81v268.082l-62.03,19.923l62.03,18.008v186.82
				c0,10.939,8.87,19.81,19.81,19.81h644.659c10.94,0,19.811-8.87,19.811-19.81V355.294
				C2547.708,344.354,2538.838,335.484,2527.897,335.484z"/>
			<rect x="1927.998" y="402.472" fill="none" width="583.032" height="407.034"/>
			<text transform="matrix(1 0 0 1 1927.998 419.5122)"><tspan x="0" y="0" fill="#333333" font-family="'MyriadPro-Regular'" font-size="24px">This design was made by vexels.com. It’s under CC 3.0 </tspan><tspan x="0" y="28.8" fill="#333333" font-family="'MyriadPro-Regular'" font-size="24px">Attribution License. This means that for free use you must </tspan><tspan x="0" y="57.6" fill="#333333" font-family="'MyriadPro-Regular'" font-size="24px">give credit and can’t do merchandise items. You can only </tspan><tspan x="0" y="86.4" fill="#333333" font-family="'MyriadPro-Regular'" font-size="24px">do commercial and merchandise items without credit if </tspan><tspan x="0" y="115.2" fill="#333333" font-family="'MyriadPro-Regular'" font-size="24px">you get a license. Learn more on </tspan><tspan x="327.785" y="115.2" fill="#C64B09" font-family="'MyriadPro-Regular'" font-size="24px">www.vexels.com/plans</tspan><tspan x="0" y="172.8" fill="#333333" font-family="'MyriadPro-Regular'" font-size="24px">You can’t sublicense, redistribute or resell an image or </tspan><tspan x="0" y="201.6" fill="#333333" font-family="'MyriadPro-Regular'" font-size="24px">part of it. You can only use our contents for products </tspan><tspan x="0" y="230.4" fill="#333333" font-family="'MyriadPro-Regular'" font-size="24px">where the design is the main reason it’s being purchased </tspan><tspan x="0" y="259.2" fill="#333333" font-family="'MyriadPro-Regular'" font-size="24px">if you get a license. Learn more on </tspan><tspan x="0" y="288" fill="#C64B09" font-family="'MyriadPro-Regular'" font-size="24px">www.vexels.com/terms-and-conditions</tspan><tspan x="0" y="345.6" fill="#333333" font-family="'MyriadPro-Regular'" font-size="24px">Thanks!</tspan><tspan x="0" y="374.4" fill="#333333" font-family="'MyriadPro-Regular'" font-size="24px">Vexels Team</tspan></text>
		</g>
	</g>
	<g>
		<g>
			<g>
				<path fill="#29BDF4" d="M1409.831,934.427l-1.045-2.262c-0.513-1.088-1.88-1.594-3.028-1.126
					c-1.243,0.425-1.798,1.71-1.285,2.758l1.175,2.546l9.287,20.151c0.088,0.08,0.172,0.234,0.212,0.312
					c0,0.038,0.049,0.038,0.049,0.038c0.042,0.077,0.128,0.155,0.214,0.235c0,0.076,0.04,0.076,0.04,0.114
					c0.126,0.08,0.214,0.118,0.297,0.196c0.042,0,0.042,0,0.042,0c0.13,0.077,0.301,0.194,0.387,0.232c0.042,0,0.042,0,0.042,0
					s0.044,0,0.044,0.042c0.084,0,0.255,0.038,0.342,0.073c0.037,0,0.084,0,0.084,0c0.128,0.04,0.299,0.04,0.431,0.04
					c0.126,0,0.255,0,0.426-0.04c0.039,0,0.081,0,0.081,0c0.129-0.035,0.213-0.073,0.344-0.073c0.044-0.042,0.044-0.042,0.084-0.042
					c0.13-0.038,0.259-0.154,0.343-0.196c0.084-0.035,0.084-0.035,0.084-0.035c0.086-0.078,0.17-0.116,0.254-0.196
					c0.046-0.037,0.046-0.037,0.088-0.114c0.044-0.08,0.17-0.158,0.212-0.235c0.042,0,0.042,0,0.042-0.038
					c0.089-0.078,0.134-0.232,0.177-0.312l0.397-0.855l-2.531-5.481L1409.831,934.427z M1500.419,934.266
					c0.725-0.973,0.557-2.294-0.51-2.956c-1.069-0.738-2.479-0.544-3.287,0.467l-4.868,6.07l2.898,3.546L1500.419,934.266z
					 M1428.514,931.039c-1.15-0.468-2.559,0.038-3.072,1.126l-6.187,13.365l2.539,5.487l8.003-17.22
					C1430.266,932.749,1429.713,931.465,1428.514,931.039z M1373.394,922.823c-1.005-1.005-2.341-1.556-3.759-1.556
					c-1.419,0-2.752,0.551-3.757,1.556l-17.203,17.207c-2.07,2.076-2.07,5.442,0,7.511l17.203,17.21
					c1.005,1.002,2.339,1.552,3.757,1.552c1.419,0,2.755-0.55,3.759-1.55l17.203-17.212c1.005-1.007,1.558-2.335,1.558-3.757
					c0-1.414-0.553-2.749-1.558-3.754L1373.394,922.823z M1387.927,945.33l-16.748,16.746c-0.828,0.828-2.261,0.828-3.082,0
					l-16.751-16.746c-0.85-0.851-0.85-2.236-0.004-3.088l16.754-16.749c0.013-0.013,0.028-0.028,0.044-0.037v13.879
					c-0.682,0.232-1.311,0.596-1.834,1.121c-0.891,0.891-1.378,2.069-1.378,3.327s0.487,2.446,1.378,3.328
					c0.888,0.895,2.072,1.382,3.327,1.382c1.26,0,2.443-0.485,3.334-1.382c1.833-1.831,1.833-4.82,0-6.661
					c-0.523-0.523-1.153-0.885-1.836-1.116v-13.879c0.015,0.01,0.033,0.024,0.049,0.037l16.748,16.749
					c0.414,0.411,0.635,0.961,0.635,1.542C1388.562,944.367,1388.341,944.911,1387.927,945.33z M1492.31,944.289l-2.866-3.575
					l-7.212-8.937c-0.731-1.011-2.223-1.205-3.25-0.467c-1.067,0.663-1.281,1.983-0.556,2.956l8.115,10.023l-8.115,10.108
					c-0.725,0.93-0.511,2.293,0.556,2.953c0.385,0.272,0.857,0.427,1.366,0.427c0.728,0,1.408-0.352,1.884-0.894l7.212-8.977
					l7.705,9.64c0.445,0.554,1.149,0.841,1.802,0.841c0.489,0,1.058-0.225,1.468-0.551c0.969-0.771,1.042-2.165,0.27-3.13
					L1492.31,944.289z M1454.545,930.618c-6.906,0-12.527,6.107-12.527,13.609c0,7.443,5.621,13.506,12.527,13.506
					c4.241,0,8.151-2.315,10.453-6.194c0.556-1.003,0.276-2.249-0.703-2.993c-0.316-0.203-0.687-0.312-1.067-0.312
					c-0.739,0-1.396,0.396-1.751,1.043c-1.446,2.551-4.104,4.131-6.932,4.131c-4.189,0-7.663-3.332-8.286-7.845h18.635
					c1.167,0,2.076-0.905,2.076-2.061l-0.002-0.274C1466.439,936.039,1461.097,930.618,1454.545,930.618z M1446.563,941.291
					c1.133-3.823,4.266-6.348,7.982-6.348c3.642,0,6.79,2.581,7.85,6.348H1446.563z M1561.308,953.341c-0.044,0-3.21,0-3.257,0
					c-1.206,0-2.61-0.697-2.61-2.647v-21.643c0-1.273-1.038-2.305-2.317-2.305c-1.228,0-2.307,1.079-2.307,2.305v21.643
					c0,4.279,2.841,7.043,7.234,7.043c0.057,0,3.23,0,3.286-0.004c1.14-0.082,2.038-1.036,2.038-2.196
					C1563.375,954.373,1562.461,953.409,1561.308,953.341z M1596.646,946.197c-0.982-1.442-2.521-2.451-4.271-3.225
					c-1.707-0.74-3.714-1.245-5.892-1.632h-0.088c-2.302-0.39-4.224-1.015-5.333-1.714c-0.556-0.345-0.944-0.695-1.158-1.009
					c-0.212-0.308-0.297-0.623-0.297-1.085c0-0.819,0.467-1.671,1.626-2.448c1.15-0.778,2.86-1.323,4.779-1.323
					c2.605,0,4.696,1.165,6.877,2.488c1.025,0.619,2.391,0.348,3.031-0.584c0.682-0.894,0.385-2.139-0.595-2.758
					c-2.179-1.282-5.215-3.113-9.313-3.113c-2.777,0-5.376,0.74-7.385,2.06c-1.966,1.328-3.419,3.344-3.419,5.679
					c0,1.163,0.341,2.252,0.986,3.183c0.936,1.362,2.347,2.337,3.964,3.032c1.627,0.7,3.509,1.167,5.51,1.517h0.09
					c2.516,0.427,4.612,1.086,5.85,1.826c0.637,0.391,1.021,0.777,1.28,1.168c0.257,0.39,0.382,0.735,0.382,1.241
					c0,0.973-0.552,1.945-1.838,2.8c-1.278,0.853-3.201,1.439-5.333,1.439c-3.035,0.037-6.279-1.596-8.156-2.993
					c-0.943-0.704-2.349-0.585-3.119,0.266c-0.726,0.857-0.599,2.141,0.341,2.84c2.437,1.752,6.319,3.852,10.934,3.887
					c3.03,0,5.806-0.815,7.9-2.211c2.134-1.404,3.67-3.538,3.67-6.029C1597.669,948.291,1597.287,947.128,1596.646,946.197z
					 M1525.854,930.618c-6.906,0-12.525,6.107-12.525,13.609c0,7.443,5.62,13.506,12.525,13.506c4.247,0,8.148-2.315,10.457-6.194
					c0.554-1.003,0.275-2.249-0.701-2.993c-0.319-0.203-0.689-0.312-1.071-0.312c-0.737,0-1.392,0.396-1.75,1.043
					c-1.445,2.551-4.103,4.131-6.935,4.131c-4.189,0-7.663-3.332-8.284-7.845h18.639c1.162,0,2.075-0.905,2.075-2.061v-0.274
					C1537.752,936.039,1532.41,930.618,1525.854,930.618z M1517.874,941.291c1.131-3.823,4.266-6.348,7.98-6.348
					c3.65,0,6.792,2.581,7.852,6.348H1517.874z"/>
			</g>
			<g>
				<path fill="#29BDF4" d="M1220.75,945.59c0,0.809,0.008,1.541,0.021,2.199c0.016,0.653,0.089,1.3,0.215,1.935h-1.282
					l-0.474-1.686h-0.096c-0.316,0.553-0.774,1.013-1.378,1.377c-0.602,0.363-1.304,0.545-2.114,0.545
					c-1.582,0-2.759-0.496-3.528-1.497c-0.768-0.996-1.151-2.556-1.151-4.68c0-2.025,0.48-3.564,1.439-4.616
					c0.956-1.053,2.275-1.578,3.953-1.578c0.585,0,1.049,0.03,1.39,0.091c0.339,0.064,0.707,0.166,1.103,0.31v-4.94h1.902V945.59z
					 M1215.952,948.301c0.807,0,1.448-0.213,1.925-0.632c0.472-0.419,0.797-1.056,0.971-1.912v-5.89
					c-0.286-0.22-0.607-0.38-0.971-0.476c-0.367-0.094-0.849-0.142-1.45-0.142c-1.093,0-1.947,0.361-2.565,1.083
					c-0.617,0.719-0.927,1.87-0.927,3.451c0,0.651,0.052,1.253,0.156,1.806c0.1,0.558,0.272,1.031,0.51,1.426
					c0.237,0.398,0.549,0.709,0.939,0.939C1214.927,948.185,1215.398,948.301,1215.952,948.301z"/>
				<path fill="#29BDF4" d="M1233.077,948.726c-0.478,0.381-1.073,0.681-1.793,0.903c-0.722,0.221-1.484,0.332-2.292,0.332
					c-0.903,0-1.688-0.146-2.353-0.44c-0.663-0.292-1.211-0.711-1.638-1.259c-0.427-0.547-0.745-1.201-0.949-1.96
					c-0.208-0.759-0.312-1.611-0.312-2.563c0-2.027,0.454-3.573,1.357-4.635c0.901-1.058,2.191-1.592,3.871-1.592
					c0.538,0,1.074,0.062,1.614,0.182c0.54,0.116,1.021,0.343,1.448,0.677c0.428,0.332,0.777,0.804,1.047,1.411
					c0.268,0.611,0.403,1.414,0.403,2.41c0,0.523-0.048,1.103-0.144,1.734h-7.623c0,0.697,0.07,1.315,0.214,1.854
					c0.142,0.539,0.362,0.993,0.665,1.363c0.301,0.374,0.691,0.66,1.175,0.857c0.483,0.198,1.073,0.298,1.77,0.298
					c0.538,0,1.075-0.098,1.616-0.288c0.538-0.188,0.941-0.412,1.211-0.664L1233.077,948.726z M1228.992,939.18
					c-0.934,0-1.684,0.243-2.245,0.735c-0.563,0.491-0.899,1.33-1.009,2.519h5.889c0-1.205-0.23-2.048-0.689-2.531
					C1230.478,939.419,1229.831,939.18,1228.992,939.18z"/>
				<path fill="#29BDF4" d="M1241.697,946.447c0-0.478-0.142-0.849-0.425-1.116c-0.288-0.27-0.64-0.494-1.059-0.677
					c-0.42-0.182-0.879-0.358-1.376-0.523c-0.5-0.164-0.959-0.379-1.379-0.64c-0.42-0.261-0.771-0.599-1.056-1.009
					c-0.284-0.414-0.428-0.969-0.428-1.666c0-1.139,0.323-1.972,0.974-2.504c0.648-0.531,1.552-0.799,2.709-0.799
					c0.854,0,1.572,0.078,2.149,0.23c0.578,0.15,1.08,0.328,1.508,0.536l-0.452,1.564c-0.365-0.172-0.805-0.327-1.318-0.459
					c-0.516-0.135-1.065-0.203-1.652-0.203c-0.697,0-1.207,0.117-1.53,0.356c-0.326,0.239-0.487,0.649-0.487,1.235
					c0,0.411,0.141,0.733,0.429,0.962c0.284,0.23,0.635,0.436,1.054,0.618c0.419,0.182,0.879,0.359,1.379,0.535
					c0.498,0.174,0.957,0.404,1.377,0.689c0.42,0.284,0.772,0.643,1.056,1.079c0.286,0.437,0.427,1.007,0.427,1.72
					c0,0.509-0.082,0.985-0.247,1.426c-0.168,0.445-0.424,0.825-0.773,1.14c-0.35,0.317-0.779,0.567-1.295,0.747
					c-0.515,0.181-1.118,0.274-1.815,0.274c-0.904,0-1.672-0.089-2.303-0.26c-0.635-0.175-1.165-0.38-1.592-0.617l0.569-1.616
					c0.365,0.206,0.839,0.396,1.426,0.571c0.585,0.174,1.178,0.262,1.78,0.262c0.681,0,1.244-0.136,1.686-0.406
					C1241.475,947.625,1241.697,947.144,1241.697,946.447z"/>
				<path fill="#29BDF4" d="M1246.472,934.191c0-0.363,0.121-0.677,0.367-0.941c0.246-0.261,0.56-0.391,0.939-0.391
					s0.703,0.13,0.972,0.391c0.27,0.264,0.403,0.578,0.403,0.941c0,0.361-0.133,0.666-0.403,0.901
					c-0.27,0.239-0.593,0.358-0.972,0.358s-0.693-0.118-0.939-0.358C1246.593,934.857,1246.472,934.553,1246.472,934.191z
					 M1246.875,937.801h1.899v11.874h-1.899V937.801z"/>
				<path fill="#29BDF4" d="M1261.932,950.222c0,1.536-0.409,2.669-1.224,3.398c-0.815,0.727-2.021,1.091-3.621,1.091
					c-0.95,0-1.714-0.058-2.292-0.177c-0.577-0.118-1.073-0.274-1.486-0.464l0.502-1.615c0.364,0.145,0.767,0.279,1.211,0.405
					c0.443,0.128,1.021,0.19,1.734,0.19c0.665,0,1.206-0.06,1.625-0.178c0.42-0.117,0.757-0.317,1.009-0.595
					c0.254-0.276,0.428-0.633,0.523-1.069c0.094-0.436,0.142-0.954,0.142-1.556v-1.138h-0.094c-0.317,0.459-0.721,0.812-1.21,1.056
					c-0.492,0.246-1.133,0.37-1.926,0.37c-1.598,0-2.774-0.5-3.526-1.499c-0.753-0.996-1.129-2.549-1.129-4.656
					c0-2.025,0.483-3.564,1.448-4.616c0.967-1.053,2.391-1.578,4.275-1.578c0.903,0,1.676,0.07,2.317,0.212
					c0.642,0.142,1.215,0.31,1.722,0.497V950.222z M1257.159,948.274c0.807,0,1.441-0.201,1.899-0.605
					c0.46-0.403,0.786-1.033,0.975-1.887v-6.081c-0.635-0.302-1.443-0.452-2.424-0.452c-1.077,0-1.923,0.366-2.541,1.093
					c-0.617,0.727-0.927,1.87-0.927,3.42c0,0.666,0.056,1.275,0.166,1.828c0.112,0.558,0.286,1.031,0.524,1.426
					c0.237,0.398,0.545,0.706,0.927,0.927C1256.138,948.165,1256.603,948.274,1257.159,948.274z"/>
				<path fill="#29BDF4" d="M1273.213,949.675v-6.766c0-1.237-0.177-2.168-0.535-2.791c-0.356-0.627-1.01-0.939-1.958-0.939
					c-0.841,0-1.534,0.226-2.079,0.677c-0.546,0.449-0.931,1.017-1.153,1.698v8.12h-1.899v-11.874h1.33l0.356,1.448h0.096
					c0.381-0.507,0.89-0.925,1.532-1.248c0.641-0.322,1.406-0.488,2.291-0.488c0.651,0,1.22,0.078,1.71,0.23
					c0.492,0.15,0.899,0.414,1.225,0.793c0.323,0.379,0.569,0.891,0.735,1.532c0.168,0.642,0.25,1.454,0.25,2.435v7.172H1273.213z"
					/>
				<path fill="#29BDF4" d="M1287.249,948.726c-0.474,0.381-1.071,0.681-1.792,0.903c-0.722,0.221-1.485,0.332-2.292,0.332
					c-0.902,0-1.688-0.146-2.351-0.44c-0.664-0.292-1.212-0.711-1.64-1.259c-0.427-0.547-0.745-1.201-0.949-1.96
					c-0.206-0.759-0.31-1.611-0.31-2.563c0-2.027,0.452-3.573,1.355-4.635c0.901-1.058,2.193-1.592,3.871-1.592
					c0.54,0,1.078,0.062,1.616,0.182c0.536,0.116,1.019,0.343,1.448,0.677c0.426,0.332,0.773,0.804,1.043,1.411
					c0.27,0.611,0.405,1.414,0.405,2.41c0,0.523-0.048,1.103-0.141,1.734h-7.625c0,0.697,0.072,1.315,0.214,1.854
					c0.142,0.539,0.364,0.993,0.665,1.363c0.301,0.374,0.691,0.66,1.175,0.857c0.483,0.198,1.073,0.298,1.77,0.298
					c0.54,0,1.078-0.098,1.617-0.288c0.537-0.188,0.94-0.412,1.21-0.664L1287.249,948.726z M1283.165,939.18
					c-0.934,0-1.682,0.243-2.244,0.735c-0.562,0.491-0.899,1.33-1.01,2.519h5.891c0-1.205-0.232-2.048-0.689-2.531
					C1284.651,939.419,1284.002,939.18,1283.165,939.18z"/>
				<path fill="#29BDF4" d="M1299.768,945.59c0,0.809,0.006,1.541,0.022,2.199c0.018,0.653,0.088,1.3,0.214,1.935h-1.282
					l-0.474-1.686h-0.095c-0.318,0.553-0.777,1.013-1.377,1.377c-0.604,0.363-1.308,0.545-2.116,0.545
					c-1.582,0-2.758-0.496-3.528-1.497c-0.767-0.996-1.153-2.556-1.153-4.68c0-2.025,0.48-3.564,1.439-4.616
					c0.956-1.053,2.275-1.578,3.955-1.578c0.585,0,1.049,0.03,1.388,0.091c0.342,0.064,0.709,0.166,1.105,0.31v-4.94h1.902V945.59z
					 M1294.969,948.301c0.807,0,1.448-0.213,1.924-0.632c0.473-0.419,0.799-1.056,0.972-1.912v-5.89
					c-0.283-0.22-0.609-0.38-0.972-0.476c-0.363-0.094-0.848-0.142-1.45-0.142c-1.093,0-1.946,0.361-2.563,1.083
					c-0.618,0.719-0.928,1.87-0.928,3.451c0,0.651,0.051,1.253,0.155,1.806c0.102,0.558,0.274,1.031,0.509,1.426
					c0.239,0.398,0.551,0.709,0.941,0.939C1293.944,948.185,1294.414,948.301,1294.969,948.301z"/>
				<path fill="#29BDF4" d="M1309.766,933.051h1.9v5.915h0.096c0.363-0.46,0.827-0.815,1.388-1.069
					c0.561-0.254,1.177-0.384,1.839-0.384c1.539,0,2.687,0.494,3.458,1.475c0.768,0.982,1.151,2.503,1.151,4.56
					c0,2.076-0.507,3.652-1.521,4.726c-1.013,1.077-2.439,1.614-4.274,1.614c-0.888,0-1.691-0.093-2.409-0.283
					c-0.721-0.19-1.264-0.396-1.628-0.618V933.051z M1314.658,939.18c-0.793,0-1.435,0.219-1.924,0.663
					c-0.492,0.444-0.847,1.071-1.069,1.876v5.985c0.299,0.175,0.667,0.308,1.093,0.396c0.427,0.086,0.871,0.13,1.33,0.13
					c1.075,0,1.936-0.383,2.577-1.142c0.64-0.76,0.959-1.946,0.959-3.56c0-0.617-0.054-1.197-0.164-1.736
					c-0.112-0.539-0.285-0.996-0.524-1.378c-0.237-0.38-0.542-0.682-0.912-0.899C1315.651,939.291,1315.195,939.18,1314.658,939.18z
					"/>
				<path fill="#29BDF4" d="M1325.809,945.496l0.667,2.279h0.119l0.524-2.301l2.313-7.673h1.899l-3.515,10.663
					c-0.27,0.775-0.534,1.528-0.795,2.258c-0.262,0.727-0.552,1.377-0.867,1.948c-0.318,0.571-0.676,1.025-1.069,1.366
					c-0.398,0.339-0.855,0.509-1.379,0.509c-0.569,0-1.036-0.08-1.401-0.236l0.332-1.64c0.206,0.08,0.403,0.117,0.595,0.117
					c0.444,0,0.87-0.234,1.282-0.699c0.41-0.467,0.751-1.27,1.021-2.413l-4.775-11.874h2.184L1325.809,945.496z"/>
			</g>
		</g>
	</g>
</g>
</svg>
