<?xml version="1.0" encoding="utf-8"?>
<!--Designed by Vexels.com - 2017 All Rights Reserved - https://vexels.com/terms-and-conditions/-->
<svg version="1.1" id="Layer_1" xmlns="http://www.w3.org/2000/svg" xmlns:xlink="http://www.w3.org/1999/xlink" x="0px" y="0px"
	 viewBox="0 0 1200 1200" enable-background="new 0 0 1200 1200" xml:space="preserve">
<g>
	<g>
		<path fill="#C82D29" d="M539.656,265.988c0,0,5.291-41.776,71.793-33.251c66.501,8.526,150.055,31.546,152.612,90.374
			c2.558,58.828-2.898,131.828,0,168.812s10.759,95.094-111.851,62.893s-103.577-27.919-118.176-63.746
			C519.435,455.243,539.656,265.988,539.656,265.988z"/>
		<g>
			<g>
				<path fill="#FFC398" d="M433.249,620.54l-9.661,31.85c0,0,21.552,12.93-1.193,13.012c-30.894,0.155-49.725-30.731-16.125-64.575
					L433.249,620.54z"/>
				<path fill="#FFC398" d="M521.2,388.76c-2.591-0.482-4.144-0.956-7.102-1.994c-22.942-8.304-27.535-32.643-27.535-32.643
					c-9.415,44.216-13.649,87.713-13.649,87.713l-66.684,158.917l27.02,19.787c0,0,76.14-111.897,85.204-122.833l2.468-3.989
					L521.2,388.76z"/>
				<path fill="#303642" d="M789.578,1075.166c-3.792,4.152-10.331,9.178-20.751,10.298c-13.012,1.357-24.544-1.675-30.33-3.514
					c-10.053,20.359-29.53,52.438-22.181,62.499c7.38,10.216,68.4-21.307,80.251-43.423
					C796.566,1101.026,793.493,1089.216,789.578,1075.166"/>
				<path fill="#303642" d="M509.235,1103.502c-13.968,12.849-31.614,36.959-23.114,43.98c12.374,10.134,66.169-13.012,81.175-21.79
					c6.669-3.833,15.561-11.018,15.561-11.018l-5.705-26.096c-2.95,2.313-10.813,6.547-26.416,6.547
					c-14.964,0-24.143-4.634-28.458-7.503L509.235,1103.502z"/>
				<path fill="#444148" d="M750.83,926.31c0.163-1.831,0.041-3.743-0.597-5.664l-18.561-211.11l-1.717-75.584
					c0,0-37.865,15.243-86.438,11.655c-27.331-2.076-57.383-11.336-85.998-28.336c-24.224-14.45-36.876-39.345-36.713-46.693v1.839
					l-1.324,54.032l-13.886,282.387c0,0.156,0,0.319,0,0.401l13.771,176.227c0,0,1.038,0.956,2.991,2.157
					c4.234,2.869,13.453,7.503,28.376,7.503c15.644,0,23.343-4.234,26.498-6.547c1.193-0.875,1.675-1.52,1.675-1.52l2.95-172.476
					c1.12-2.632,1.398-5.345,0.76-8.059l23.784-192.115c0,0,1.52-8.541,11.696-6.866c7.863,1.357,10.339,4.708,11.336,9.734
					l41.258,207.678l63.897,155.566c0,0,1.553,0.556,3.948,1.43c5.745,1.839,17.277,4.79,30.289,3.514
					c10.535-1.12,16.959-6.146,20.751-10.298c2.877-3.187,4.111-5.901,4.111-5.901L750.83,926.31z"/>
				<path fill="#13A5B2" d="M775.136,373.755c-10.134-27.053-31.327-48.605-34.645-48.524h-0.033
					c-1.357-1.038-2.714-2.157-4.315-3.04l-79.492-54.032l-56.189-11.655c-28.859,0.082-42.467-1.193-62.295,2.877
					c-3.474,0.801-6.424,1.757-8.705,2.951c-19.714,5.19-33.804,48.768-42.9,91.791c0,0,4.593,24.339,27.535,32.643
					c2.394,0.874,4.79,1.512,6.988,1.912l-0.359,183.738l0.081-1.839c-0.123,7.348,12.448,32.243,36.713,46.693
					c28.533,17,58.585,26.26,85.956,28.336c48.573,3.588,86.479-11.655,86.479-11.655l14.45-213.668
					c15.243-4.945,30.167-14.042,37.67-24.021c0.4-0.556,0.564-1.038,0.964-1.675C779.607,385.491,776.812,378.226,775.136,373.755"
					/>
				<path fill="#EBA87C" d="M662.676,279.013l-6.465-41.658h-0.123c0.041-4.553-3.391-9.424-10.453-13.576
					c-13.052-7.576-33.24-9.252-45.058-3.988c-5.263,2.476-7.821,5.909-7.977,9.661h-0.163l-6.187,39.982l0,0
					c-1.152,5.909,2.959,12.611,12.497,18.038c15.684,9.105,39.942,11.336,54.114,4.871c7.225-3.269,10.331-8.14,9.693-13.33
					H662.676z"/>
				<path fill="#FFC398" d="M645.193,76.681c-18.356-10.053-42.336-13.249-58.74-5.819c-6.424,2.869-11.736,6.702-15.888,11.646
					c-5.386,6.465-21.503,26.342-21.503,65.532c0,47.968,26.497,83.324,26.497,83.324c11.409,17.164,51.956,24.822,83.087,2.632
					c6.301-5.982,23.702-25.778,23.702-65.523c0-47.886-24.903-80.929-24.903-80.929C653.734,82.508,647.587,78.037,645.193,76.681"
					/>
			</g>
			<path fill="#6A4B37" d="M650.126,156.186c-0.521,5.058,5.068,8.295,9.304,5.482c5.545-3.684,11.398-5.78,13.832-1.613
				c9.087,15.56-14.068,37.3,2.807,46.234c8.754,4.634,38.117-61.58,15.097-108.259s-58.828-49.876-95.276-42.203
				c-36.448,7.673-30.351-12.812-46.827-3.209c-16.477,9.603-29.905,77.384,19.331,84.417c49.237,7.034,56.91-14.707,73.536-4.476
				C649.852,137.435,651.046,147.249,650.126,156.186z"/>
		</g>
		<path fill="#E53935" d="M713.862,286.143c-3.476-2.204-7.86-2.471-11.511-0.571c-8.736,4.549-25.048,17.044-42.369,50.819
			c-27.36,53.352-23.94,142.272,15.048,177.33c31.092,27.959,53.849,21.327,63.69,15.884c3.318-1.835,5.535-5.138,5.92-8.91l0,0
			c0.727-7.124-5.167-13.044-12.313-12.568c-17.897,1.191-48.068-5.26-59.35-58.192c-15.229-71.454,7.448-105.195,43.385-146.231
			C721.08,298.318,719.908,289.977,713.862,286.143L713.862,286.143z"/>
		<path fill="#E53935" d="M522.756,466.346c0,0,0.243-146.101,46.613-207.731c5.399-7.176-0.784-16.934-10.259-16.485l0,0
			c-3.391,0.161-6.503,1.672-8.582,4.142C535.91,263.64,482.299,338.753,522.756,466.346z"/>
		<path fill="#FFC398" d="M783.04,394.588c0,0,34.095,131.894,27.7,164.491c-6.394,32.596-21.741,41.748-60.747,17.889
			c-44.516-27.229-71.428-60.197-71.428-60.197s-18.01-0.55-28.922-13.339c-10.912-12.789-10.299-32.645-2.613-42.22
			c0,0,18.47,2.588,25.504-13.398c0,0,18.028,8.939,20.887,26.843c2.859,17.904,5.116,17.665,5.116,17.665l54.737,33.689
			c3.612,1.942,7.617-1.833,5.888-5.551c-11.491-24.716-30.158-74.223-38.859-96.425
			C720.303,424.035,757.027,419.027,783.04,394.588z"/>
	</g>
</g>
</svg>
