<?xml version="1.0" encoding="utf-8"?>
<!--Designed by Vexels.com - 2017 All Rights Reserved - https://vexels.com/terms-and-conditions/-->
<svg version="1.1" id="Layer_1" xmlns="http://www.w3.org/2000/svg" xmlns:xlink="http://www.w3.org/1999/xlink" x="0px" y="0px"
	 viewBox="0 0 1200 1200" enable-background="new 0 0 1200 1200" xml:space="preserve">
<g>
	<g>
		<path fill="#E2E9FB" d="M471.032,439.922c0,0,3.858-47.207,3.955-88.558c0.056-1.183,0.007-1.887,0.003-1.949
			c-0.001-1.109-0.002-2.216-0.009-3.314l-0.009,0.021c-0.147-38.905-3.759-76.746-35.425-89.293
			c-2.316-0.918-5.065-2.081-8.427-2.857c-3.589-0.737-6.967-1.292-10.271-1.709c31.802,24.269,28.766,73.326,27.603,113.342
			c-1.616,0.179-3.289,0.289-5.082,0.244c-3.034-0.106-4.602-0.225-7.108-0.702l-26.794,104.668l0.822,4.466
			c2.676,8.078,14.903,60.048,23.839,98.51c13.386-2.545,27.183-1.406,40.197-1.957L471.032,439.922z"/>
		<path fill="#BBD6F8" d="M434.129,572.79c5.506,23.694,9.764,42.272,9.764,42.272l31.336-8.334l-0.903-35.895
			C461.312,571.384,447.515,570.245,434.129,572.79z"/>
		<g>
			<path fill="#FFC398" d="M443.893,615.063l-2.5,32.127c0,0-23.99,4.075-3.504,12.156c27.81,11.016,55.667-10.211,37.278-52.565
				L443.893,615.063z"/>
		</g>
		<path fill="#303642" d="M321.319,1070.19c0,0,5.756,31.568-2.122,42.712c-7.878,11.144-75.646,43.696-84.326,35.908
			c-15.179-13.62,44.239-90.915,44.239-90.915L321.319,1070.19z"/>
		<path fill="#303642" d="M473.99,1071.246c13.524,12.439,30.608,35.783,22.378,42.58c-11.981,9.813-64.064-12.597-78.593-21.096
			c-6.457-3.711-15.066-10.667-15.066-10.667l5.523-25.266c2.857,2.239,10.469,6.339,25.576,6.339
			c14.488,0,23.375-4.487,27.553-7.265L473.99,1071.246z"/>
		<path fill="#444148" d="M254.937,879.878c-0.158-1.773-0.039-3.624,0.578-5.484L243.768,689.81l1.662-73.18
			c0,0,36.661,14.758,83.689,11.284c26.462-2.01,55.558-10.976,83.262-27.435c23.454-13.99,35.703-38.094,35.545-45.208v1.781
			l1.282,52.314l13.445,273.406c0,0.151,0,0.309,0,0.388l1.525,170.623c0,0-1.005,0.925-2.896,2.089
			c-4.099,2.777-13.025,7.265-27.474,7.265c-15.146,0-22.6-4.099-25.655-6.339c-1.155-0.847-1.622-1.472-1.622-1.472l-17.715-166.99
			c-1.084-2.548-1.353-5.175-0.736-7.803l-23.027-186.006c0,0-1.472-8.269-11.324-6.647c-7.612,1.313-10.01,4.558-10.975,9.425
			l-10.229,181.261l-7.384,190.24c0,0-1.503,0.538-3.822,1.385c-5.563,1.781-16.728,4.637-29.326,3.403
			c-10.2-1.084-16.42-5.951-20.092-9.97c-2.785-3.087-3.98-5.713-3.98-5.713L254.937,879.878z"/>
		<path fill="#BBD6F8" d="M420.849,252.262c-14.368-1.815-27.325-1.012-50.043-1.076l-54.402,11.284l-66.183,44.986
			c0,0-13.644,9.267-14.958,10.271c-5.76,8.992-9.405,19.211-10.32,29.85c-6.092,70.884,20.488,269.051,20.488,269.051
			s36.702,14.758,83.729,11.284c26.501-2.01,55.598-10.976,83.223-27.435c23.493-13.991,35.664-38.094,35.545-45.208l0.079,1.781
			l-0.349-177.895c0.166-0.03,0.349-0.085,0.517-0.118C448.446,337.246,456.31,279.324,420.849,252.262z"/>
		<path fill="#E2E9FB" d="M367.058,318.016c0,0,22.287,9.287,27.24,7.43c4.953-1.857,5.572-59.074-13.62-73.183
			c-19.192-14.11-65.388-9.235-74.292,8.135c-14.62,28.521,29.507,78.666,41.274,78.668
			C354.676,339.067,367.058,318.016,367.058,318.016z"/>
		<path fill="#EBA87C" d="M384.566,263.705l-5.991-38.711h-0.158c-0.15-3.632-2.627-6.955-7.723-9.353
			c-11.443-5.096-30.988-3.474-43.625,3.862c-6.837,4.02-10.161,8.736-10.12,13.143h-0.119l-6.259,40.333h0.119
			c-0.384,3.129,0.64,6.138,3.154,8.727c5.083,8.652,18.378,22.565,53.215,36.31C367.058,318.016,389.074,288.638,384.566,263.705z"
			/>
		<path fill="#FFC398" d="M314.889,89.214c16.003-12.431,38.434-19.171,55.256-14.59c6.582,1.755,12.249,4.603,16.978,8.691
			c6.142,5.352,24.604,21.876,30.627,59.338c7.372,45.854-12.524,83.724-12.524,83.724c-8.269,18.16-45.851,31.712-79.02,15.285
			c-6.943-4.751-26.619-20.999-32.727-58.993c-7.359-45.775,11.368-81.189,11.368-81.189
			C307.621,96.098,312.809,90.88,314.889,89.214"/>
		<path fill="#6A4B37" d="M322.393,165.974c1.276,4.755-3.57,8.709-8.052,6.67c-5.867-2.669-11.784-3.774-13.47,0.584
			c-6.295,16.27,19.18,33.494,4.422,44.627c-7.656,5.775-45.9-53.008-31.069-101.167c14.831-48.159,48.57-56.718,84.59-54.984
			c36.021,1.733,27.044-16.912,44.27-10.264c17.226,6.648,40.479,69.377-5.506,83.667c-45.985,14.291-56.661-5.313-70.982,7.022
			C319.773,148.007,320.14,157.572,322.393,165.974z"/>
		<g>
			<path fill="#93553D" d="M719.551,474.839c9.678-26.024,49.286-83.662,60.057-139.796c-0.649,0.39-1.099,0.896-1.748,1.286
				c-16.572,9.428-44.49,10.995-62.418,3.305c-2.13-0.934-3.902-1.883-5.629-2.916c-5.958,43.053-38.559,95.548-40.68,111.13
				c-2.597,19.673-122.812,134.804-122.812,134.804l25.384,27.663C571.705,610.316,708.025,506.027,719.551,474.839"/>
			<path fill="#303642" d="M864.838,1070.19c0,0-5.757,31.568,2.121,42.712c7.878,11.144,75.647,43.696,84.326,35.908
				c15.179-13.62-44.239-90.915-44.239-90.915L864.838,1070.19z"/>
			<path fill="#303642" d="M712.166,1071.246c-13.523,12.439-30.608,35.783-22.378,42.58c11.981,9.813,64.064-12.597,78.593-21.096
				c6.457-3.711,15.066-10.667,15.066-10.667l-5.523-25.266c-2.857,2.239-10.469,6.339-25.576,6.339
				c-14.488,0-23.375-4.487-27.553-7.265L712.166,1071.246z"/>
			<path fill="#444148" d="M931.22,879.878c0.158-1.773,0.039-3.624-0.578-5.484l11.746-184.584l-1.662-73.18
				c0,0-36.662,14.758-83.689,11.284c-26.461-2.01-55.558-10.976-83.262-27.435c-23.454-13.99-35.704-38.094-35.545-45.208v1.781
				l-1.282,52.314l-13.445,273.406c0,0.151,0,0.309,0,0.388l-1.525,170.623c0,0,1.005,0.925,2.896,2.089
				c4.099,2.777,13.025,7.265,27.474,7.265c15.146,0,22.6-4.099,25.655-6.339c1.155-0.847,1.622-1.472,1.622-1.472l17.715-166.99
				c1.084-2.548,1.353-5.175,0.736-7.803l23.027-186.006c0,0,1.472-8.269,11.324-6.647c7.612,1.313,10.01,4.558,10.975,9.425
				l10.229,181.261l7.384,190.24c0,0,1.503,0.538,3.822,1.385c5.563,1.781,16.728,4.637,29.326,3.403
				c10.2-1.084,16.42-5.951,20.092-9.97c2.785-3.087,3.98-5.713,3.98-5.713L931.22,879.878z"/>
			<path fill="#FFA600" d="M940.726,616.629c0,0-36.702,14.758-83.729,11.284c-26.501-2.01-55.598-10.976-83.223-27.435
				c-23.493-13.99-35.664-38.094-35.545-45.208l-0.079,1.781l0.348-177.895c-2.129-0.388-4.447-1.005-6.765-1.852
				c-22.212-8.039-26.659-31.604-26.659-31.604c8.807-41.655,22.449-83.847,41.536-88.873c2.208-1.155,5.065-2.081,8.427-2.857
				c19.197-3.941,32.372-2.706,60.314-2.785l54.402,11.284l66.183,44.986c0,0,13.644,9.267,14.958,10.271l0,0
				c5.76,8.992,9.405,19.211,10.32,29.85C967.306,418.462,940.726,616.629,940.726,616.629z"/>
			<path fill="#804633" d="M875.586,272.979l-6.259-40.334h-0.119c0.04-4.407-3.283-9.123-10.12-13.143
				c-12.637-7.336-32.183-8.958-43.625-3.862c-5.096,2.398-7.573,5.721-7.723,9.353h-0.159l-5.99,38.711l0,0
				c-1.116,5.721,2.865,12.21,12.099,17.464c15.185,8.815,38.671,10.975,52.393,4.716c6.995-3.165,10.002-7.881,9.385-12.906
				H875.586z"/>
			<path fill="#93553D" d="M871.267,89.214c-16.003-12.431-38.434-19.171-55.257-14.59c-6.581,1.755-12.248,4.603-16.978,8.691
				c-6.142,5.352-24.603,21.876-30.626,59.338c-7.372,45.854,12.523,83.724,12.523,83.724c8.269,18.16,45.852,31.712,79.021,15.285
				c6.943-4.751,26.619-20.999,32.727-58.993c7.359-45.775-11.368-81.189-11.368-81.189
				C878.536,96.098,873.347,90.88,871.267,89.214"/>
		</g>
		<path fill="#E2E9FB" d="M374.742,491.767c-12.432-9.631-58.757-48.864-81.213-86.077c0,0-25.584-88.91-52.53-91.946
			c0,0-29.335,17.892-32.43,55.658c-3.096,37.765,20.164,62.276,20.164,62.276s1.108,0.255,3.021,0.558
			c-0.299-0.028-0.611-0.032-0.908-0.066c-0.749-0.102-1.363-0.39-2.113-0.492c32.037,47.335,91.167,84.68,110.324,104.777
			c15.595,16.428,97.763,41.178,148.579,55.294c8.82-10.856,14.964-24.111,17.923-38.112
			C458.949,535.317,386.824,501.126,374.742,491.767z"/>
		<path fill="#FFC398" d="M609.126,575.562c0,0-27.24-24.485-53.243-20.291c-26.002,4.194-56.957,20.291-56.957,20.291
			s19.811,44.215,55.1,44.395c0.353,0.002,0.703,0.002,1.052,0c25.868-0.127,48.092-18.431,53.876-43.645L609.126,575.562z"/>
		<path fill="#93553D" d="M991.522,555.338c-3.75-22.79-2.563-116.958-19.56-162.166c-0.387,0.538-0.546,1.084-0.933,1.622
			c-10.161,13.365-34.034,25.425-53.469,26.818c-2.319,0.15-4.329,0.15-6.339,0.071c15.067,33.773,17.629,121.445,23.113,133.655
			c6.995,15.383-51.178,109.883-51.178,109.883L918.59,675.5C918.59,675.5,996.08,582.623,991.522,555.338"/>
		<path fill="#FFA600" d="M977.284,398.499c0,0,2.993-60.696-26.389-80.771c-29.383-20.076-56.504,84.073-56.504,84.073
			l15.607,20.707C909.997,422.509,967.328,440.195,977.284,398.499z"/>
		<path fill="#93553D" d="M883.156,665.221c0,0-12.523,19.716,16.535,31.272c14.081,5.6,25.576-12.458,29.62-34.266
			C933.216,641.163,883.156,665.221,883.156,665.221z"/>
		<path fill="#BBD6F8" d="M522.852,560.37c-5.007-1.932-10.86-4.206-17.293-6.734c-2.959,14.001-9.103,27.256-17.923,38.112
			c8.757,2.432,16.586,4.55,22.983,6.255c10.003,2.666,20.348-2.834,23.772-12.604l0,0
			C537.931,575.297,532.838,564.224,522.852,560.37z"/>
		<path fill="#303642" d="M858.865,165.974c-1.276,4.755,3.57,8.709,8.051,6.67c5.868-2.669,11.784-3.774,13.47,0.584
			c6.295,16.27-19.18,43.4-4.422,54.533c7.656,5.775,38.762-34.196,41.887-61.688c9.974-87.757-49.003-114.352-85.023-112.618
			c-36.02,1.733-52.239,14.346-61.107,30.542c-14.011,25.59-4.953,47.052,11.958,51.109c46.825,11.236,56.661-5.313,70.981,7.022
			C861.485,148.007,861.118,157.572,858.865,165.974z"/>
	</g>
</g>
</svg>
