<?xml version="1.0" encoding="utf-8"?>
<!-- Generator: Adobe Illustrator 17.0.0, SVG Export Plug-In . SVG Version: 6.00 Build 0)  -->
<!DOCTYPE svg PUBLIC "-//W3C//DTD SVG 1.1//EN" "http://www.w3.org/Graphics/SVG/1.1/DTD/svg11.dtd">
<svg version="1.1" id="Layer_1" xmlns="http://www.w3.org/2000/svg" xmlns:xlink="http://www.w3.org/1999/xlink" x="0px" y="0px"
	 width="1200px" height="1200px" viewBox="0 0 1200 1200" enable-background="new 0 0 1200 1200" xml:space="preserve">
<g>
	<path fill="#E6007E" d="M1140.536,892.737l-12.073,12.083h-58.599v32.446h-98.862L936.64,646.869l1.773,1.876l-0.397,0.457
		c-1.123,1.375-0.94,3.395,0.444,4.501c0.575,0.509,1.321,0.721,2.02,0.721c0.881,0,1.733-0.336,2.372-1.032l20.026,20.946
		l-1.296,1.506c-1.173,1.328-1.052,3.348,0.299,4.508c0.588,0.528,1.345,0.79,2.094,0.79c0.904,0,1.792-0.36,2.405-1.106
		l0.955-1.061l21.695,22.699l-0.718,0.82c-1.22,1.299-1.099,3.323,0.217,4.504c0.61,0.553,1.368,0.839,2.116,0.839
		c0.904,0,1.768-0.385,2.405-1.057l0.422-0.459l22.662,23.686l-1.178,1.324c-1.148,1.298-1.04,3.348,0.274,4.498
		c0.627,0.553,1.37,0.825,2.131,0.825c0.869,0,1.768-0.366,2.392-1.062l0.807-0.943l21.736,22.729l-1.553,1.536
		c-1.262,1.249-1.262,3.294-0.037,4.548c0.627,0.652,1.447,0.963,2.264,0.963c0.844,0,1.627-0.311,2.249-0.938l1.504-1.496
		l0.361,0.366c0.607,0.647,1.471,0.987,2.286,0.987c0.798,0,1.595-0.291,2.24-0.889c1.267-1.229,1.328-3.254,0.086-4.528
		l-0.385-0.404l34.37-33.893l2.671,2.597c1.062,1.037,2.395,1.516,3.748,1.516c1.39,0,2.768-0.528,3.812-1.59
		c2.059-2.114,2.012-5.486-0.059-7.53l-2.553-2.479l20.473-20.221c0.252,0.074,0.493,0.168,0.72,0.168
		c0.818,0,1.662-0.311,2.274-0.958c0.804-0.795,1.044-1.901,0.804-2.963l2.385-2.336c1.262-1.254,1.289-3.298,0.037-4.548
		c-1.251-1.249-3.273-1.249-4.525-0.025l-2.022,1.995l-26.859-26.837l1.499-1.704c1.16-1.328,1.04-3.352-0.274-4.503
		c-1.323-1.205-3.355-1.061-4.521,0.242l-1.259,1.422l-22.667-22.677l2.017-2.239c1.185-1.323,1.077-3.345-0.227-4.499
		c-1.309-1.205-3.348-1.111-4.533,0.215l-1.785,1.995l-23.265-23.249l1.015-1.178c1.165-1.326,1.022-3.345-0.316-4.503
		c-1.323-1.178-3.331-1.035-4.511,0.289l-0.721,0.844l-22.509-22.482l2.503-3.032c1.108-1.373,0.916-3.395-0.454-4.503
		c-1.361-1.153-3.392-0.963-4.516,0.412l-2.079,2.575l-24.358-24.386l1.55-1.899c1.094-1.395,0.854-3.392-0.516-4.525
		c-1.4-1.084-3.405-0.844-4.504,0.531l-1.091,1.348L948.93,522.77l1.516-1.901c1.103-1.373,0.913-3.397-0.467-4.503
		c-1.402-1.084-3.395-0.891-4.506,0.481l-1.094,1.373l-19.942-19.929c-3.116-25.681-15.139-58.587-52.627-79.286l31.135-29.266
		l37.221,39.616c0.58,0.627,1.397,1.012,2.237,1.012h0.096c0.82,0,1.605-0.289,2.192-0.864l27.269-25.827
		c0.432,0.165,0.891,0.311,1.338,0.311c0.783,0,1.55-0.311,2.163-0.867c1.005-0.913,1.279-2.333,0.798-3.513l24.597-23.348
		l0.266,0.289c0.635,0.674,1.479,1.012,2.346,1.012c0.783,0,1.563-0.289,2.178-0.842c1.311-1.205,1.382-3.227,0.17-4.526
		l-0.304-0.313l24.41-23.106l0.109,0.121c0.659,0.674,1.513,1.01,2.343,1.01c0.797,0,1.59-0.264,2.187-0.842
		c1.306-1.229,1.378-3.249,0.158-4.525l-0.158-0.19l23.796-22.529l0.577,0.647c0.642,0.699,1.494,1.059,2.368,1.059
		c0.75,0,1.558-0.289,2.157-0.864c1.311-1.182,1.398-3.204,0.205-4.503l-0.674-0.721l25.007-23.731
		c0.627,0.575,1.422,0.889,2.227,0.889c0.758,0,1.575-0.289,2.182-0.889c1.235-1.158,1.309-3.057,0.237-4.358l24.153-22.914
		c0.528,0.336,1.121,0.504,1.718,0.504c0.76,0,1.555-0.286,2.168-0.866c1.111-1.01,1.254-2.6,0.58-3.849l23.983-22.724
		c0.484,0.266,1,0.41,1.553,0.41c0.773,0,1.565-0.286,2.19-0.867c1.276-1.227,1.358-3.246,0.143-4.548l-0.551-0.577
		c-0.118-0.459-0.336-0.916-0.711-1.301c-0.375-0.383-0.785-0.625-1.277-0.771l-35.456-37.74l1.689-1.587
		c2.153-2.025,2.24-5.392,0.242-7.558c-2.025-2.143-5.405-2.264-7.55-0.217l-1.681,1.587l-23.23-24.718
		c-1.214-1.299-3.246-1.37-4.528-0.168c-1.308,1.227-1.355,3.249-0.128,4.55l-24.333,22.119c-1.2-0.701-2.758-0.652-3.824,0.361
		c-1.077,0.985-1.234,2.501-0.642,3.731l-25.333,23.082c-0.83-0.05-1.672,0.24-2.299,0.867c-0.649,0.556-0.948,1.348-1.022,2.143
		l-25.454,23.178c-1.165-0.649-2.634-0.528-3.682,0.41c-1.047,0.938-1.262,2.407-0.721,3.631L963.07,268.79
		c-0.914-0.143-1.889,0.072-2.625,0.771c-0.733,0.674-1.019,1.612-0.997,2.503l-25.175,22.938l-0.086-0.146
		c-1.227-1.298-3.274-1.348-4.548-0.143c-1.288,1.178-1.372,3.202-0.168,4.525l0.074,0.072l-24.578,22.383
		c-1.202-1.035-3.044-1.081-4.247,0.025c-1.18,1.108-1.289,2.889-0.375,4.212l-28.508,25.97c-0.64,0.58-1.024,1.373-1.049,2.215
		c-0.059,0.867,0.279,1.709,0.869,2.336l23.96,25.513l-34.046,31.987c-6.249-2.743-13.023-5.222-20.544-7.268
		c-14.67,7.511-26.044,17.162-34.947,27.778l-39.655-38.898l36.273-23.178c0.36,0.146,0.745,0.217,1.143,0.217
		c0.829,0,1.649-0.313,2.261-0.94c0.556-0.553,0.817-1.277,0.879-2.023l2.864-1.827c1.491-0.916,1.938-2.913,0.975-4.405
		c-0.975-1.494-2.962-1.928-4.441-0.987l-3.032,1.948l-22.094-21.951l1.958-1.299c1.457-1.012,1.857-2.985,0.881-4.451
		c-0.987-1.494-2.973-1.879-4.454-0.894l-3.044,2.025l-22.541-22.41l1.457-1.01c1.444-1.012,1.805-3.032,0.77-4.479
		c-1-1.442-2.997-1.78-4.441-0.77l-2.405,1.686l-20.472-20.389l0.889-0.602c1.469-0.985,1.841-2.983,0.832-4.452
		c-1.012-1.444-3.01-1.829-4.466-0.82l-1.852,1.304l-21.541-21.4l0.36-0.264c1.467-1.01,1.805-3.032,0.793-4.476
		c-1.035-1.42-3.032-1.782-4.466-0.77l-1.284,0.916l-24.371-24.239l1.778-1.494c1.363-1.106,1.531-3.128,0.422-4.501
		c-1.131-1.345-3.14-1.563-4.499-0.407l-2.264,1.876l-21.637-21.519l1.323-1.057c1.348-1.133,1.504-3.153,0.373-4.525
		c-1.155-1.348-3.167-1.541-4.525-0.385l-1.708,1.469l-21.168-21.037l2.538-2.286c1.313-1.18,1.422-3.202,0.252-4.525
		c-1.2-1.323-3.212-1.419-4.536-0.242l-2.985,2.671c-1.168-0.504-2.575-0.311-3.548,0.677c-0.857,0.842-1.108,2.093-0.748,3.2
		l-32.723,29.39l-1.096-1.059c-2.081-2.047-5.473-2.047-7.545,0.072c-2.047,2.118-2.019,5.464,0.084,7.535l0.615,0.6l-20.109,18.053
		c-0.94-0.05-1.891,0.239-2.599,0.985c-0.553,0.602-0.82,1.351-0.832,2.119l-2.178,1.95c-1.311,1.18-1.419,3.202-0.23,4.525
		c0.615,0.699,1.482,1.059,2.385,1.059c0.746,0,1.504-0.289,2.119-0.82l1.768-1.588l19.605,18.317l-1.012,0.844
		c-1.358,1.153-1.528,3.175-0.395,4.525c0.637,0.745,1.55,1.153,2.454,1.153c0.734,0,1.457-0.266,2.044-0.77l1.615-1.326
		l21.756,20.341l-0.77,0.624c-1.345,1.131-1.538,3.153-0.42,4.501c0.652,0.77,1.553,1.18,2.466,1.18c0.723,0,1.469-0.24,2.046-0.746
		l1.398-1.155l20.013,18.774c-1.167,1.059-1.373,2.839-0.471,4.165c0.652,0.891,1.637,1.37,2.649,1.37
		c0.627,0,1.274-0.168,1.854-0.577l0.721-0.531l21.736,20.338c-0.975,1.087-1.146,2.696-0.279,3.95
		c0.627,0.891,1.639,1.373,2.662,1.373c0.612,0,1.262-0.195,1.805-0.58l0.506-0.336l21.771,20.386
		c-0.76,1.086-0.844,2.55-0.025,3.731c0.627,0.891,1.612,1.372,2.612,1.372c0.637,0,1.286-0.217,1.839-0.602l0.254-0.143
		l21.83,20.433l-0.059,0.052c-1.482,0.985-1.891,2.983-0.891,4.452c0.615,0.914,1.637,1.42,2.659,1.42
		c0.615,0,1.252-0.168,1.77-0.531l1.323-0.889l21.65,20.24c-1.311,1.012-1.649,2.839-0.758,4.261
		c0.602,0.938,1.649,1.469,2.696,1.469c0.615,0,1.217-0.17,1.745-0.506l1.274-0.818c0.41,0.168,0.844,0.264,1.264,0.264
		c0.842,0,1.708-0.363,2.323-1.035c0.556-0.578,0.795-1.298,0.83-2.072l18.509-11.819l42.337,41.519
		c-10.962,15.885-17.053,33.195-20.42,48.477l-26.849,25.25l-20.255-16.729c0.518-1.131,0.41-2.503-0.457-3.491
		c-1.121-1.274-2.973-1.467-4.333-0.457l-2.481-2.044c-1.321-1.133-3.355-0.94-4.499,0.432c-1.131,1.348-0.904,3.37,0.432,4.501
		l1.588,1.324l-25.536,21.904l-2.852-2.503c-1.373-1.153-3.395-1.01-4.525,0.314c-1.143,1.345-1.025,3.367,0.311,4.525l2.168,1.874
		l-25.141,21.543l-2.599-2.526c-1.274-1.202-3.296-1.183-4.525,0.094c-1.227,1.276-1.19,3.326,0.111,4.525l2.178,2.094
		l-26.175,22.435l-1.494-1.395c-1.298-1.23-3.333-1.158-4.525,0.118c-1.225,1.277-1.178,3.323,0.109,4.55l1.037,0.936
		l-26.753,22.941l-0.82-0.795c-1.311-1.205-3.333-1.155-4.538,0.121c-1.215,1.298-1.155,3.32,0.121,4.548l0.338,0.313
		l-25.573,21.949l-0.232-0.19c-1.249-1.252-3.271-1.227-4.511,0.024c-1.18,1.205-1.18,3.057-0.121,4.333l-23.924,20.506
		l-1.254-1.323c-1.202-1.254-3.234-1.298-4.523-0.099c-1.277,1.205-1.336,3.249-0.109,4.528l1.012,1.082l-27.874,23.899l-1.6-1.634
		c-1.227-1.274-3.274-1.299-4.55-0.099c-1.252,1.249-1.286,3.249-0.035,4.528l2.299,2.404c0.072,0.628,0.313,1.205,0.746,1.733
		c0.541,0.627,1.215,0.938,1.972,1.062l27.887,28.807c-1.904,2.049-1.941,5.224,0,7.298c1.059,1.101,2.476,1.679,3.874,1.679
		c1.276,0,2.503-0.454,3.513-1.318l18.727,19.322c-0.289,1.086-0.072,2.266,0.795,3.111c0.6,0.622,1.432,0.938,2.25,0.938
		c0.254,0,0.506-0.074,0.748-0.144l2.308,2.38c0.603,0.652,1.447,0.963,2.276,0.963c0.805,0,1.612-0.291,2.252-0.889
		c1.262-1.23,1.286-3.249,0.071-4.528l-2.037-2.094l25.252-25.444l0.973,0.993c0.627,0.671,1.494,1.007,2.299,1.007
		c0.807,0,1.612-0.286,2.227-0.889c1.289-1.2,1.348-3.249,0.109-4.503l-1.083-1.15l24.166-24.358l1.192,1.15
		c0.612,0.632,1.432,0.938,2.227,0.938c0.842,0,1.659-0.336,2.299-0.963c1.249-1.269,1.202-3.293-0.037-4.543l-1.18-1.136
		l24.709-24.862l1.901,1.802c0.649,0.583,1.429,0.869,2.202,0.869c0.864,0,1.721-0.361,2.321-1.012
		c1.242-1.279,1.168-3.323-0.121-4.528l-1.778-1.679l24.729-24.936l1.481,1.395c0.627,0.58,1.41,0.869,2.203,0.869
		c0.842,0,1.696-0.338,2.323-1.015c1.215-1.301,1.156-3.323-0.121-4.523l-1.36-1.277l23.672-23.854l2.084,2.025
		c0.615,0.575,1.42,0.888,2.215,0.888c0.854,0,1.684-0.338,2.321-0.987c1.23-1.276,1.192-3.296-0.084-4.525l-2.034-1.95
		l25.829-25.993l0.706,0.628c0.602,0.528,1.363,0.792,2.096,0.792c0.891,0,1.78-0.36,2.432-1.106
		c1.155-1.323,1.012-3.348-0.35-4.525l-0.385-0.338l24.563-24.718l1.059,0.869L744.918,794.05H683.83V917.12h-26.353v-62.986
		h-45.433l-42.482-42.51l-46.887,46.89H50v180.901h1090.536V892.737z M942.635,422.642l-35.031-37.286l25.343-23.827l34.496,37.597
		L942.635,422.642z M972.093,394.721l-34.486-37.572l24.344-22.891l34.564,37.33L972.093,394.721z M1001.185,367.185l-34.565-37.283
		l24.373-22.889l34.572,37.043L1001.185,367.185z M1030.201,339.674l-34.542-37.043l24.213-22.768l34.145,37.233L1030.201,339.674z
		 M1058.663,312.692l-34.117-37.211l24.595-23.106l34.493,36.682L1058.663,312.692z M1088.292,284.652l-34.468-36.682l24.141-22.697
		l34.372,36.56L1088.292,284.652z M1106.473,198.483l34.263,36.466l-23.746,22.506l-34.355-36.562L1106.473,198.483z
		 M1080.337,170.661l18.843,20.05l-23.85,22.383l-19.198-20.41L1080.337,170.661z M1051.394,196.992l19.268,20.507l-24.181,22.699
		l-19.588-20.87L1051.394,196.992z M1022.148,223.636l19.692,20.941l-24.519,23.008l-19.783-21.541L1022.148,223.636z
		 M992.807,250.377l19.858,21.615l-24.297,22.842l-20.364-21.854L992.807,250.377z M963.25,277.288l20.435,21.926l-24.333,22.865
		l-20.712-22.383L963.25,277.288z M933.897,304.004l20.806,22.432l-24.309,22.865l-21.045-22.936L933.897,304.004z M878.552,354.428
		l26.067-23.755l21.097,22.985l-25.43,23.926L878.552,354.428z M771.18,341.432l-35.695,23.778l-21.904-21.494l35.142-24.597
		L771.18,341.432z M744.113,314.524l-35.177,24.644l-20.892-20.485l35.549-24.551L744.113,314.524z M718.997,289.536l-35.599,24.575
		l-21.373-20.939l35.478-24.985L718.997,289.536z M692.883,263.615L657.368,288.6l-21.786-21.349l33.291-27.511L692.883,263.615z
		 M664.311,235.191l-33.337,27.558l-21.47-21.059l33.253-27.943L664.311,235.191z M617.182,188.326l21.001,20.869l-33.264,27.965
		l-20.134-19.734L617.182,188.326z M557.383,242.049l19.448-17.475l19.882,19.497l-19.605,16.465L557.383,242.049z M581.825,264.938
		l19.474-16.366l21.42,20.988l-19.1,15.766L581.825,264.938z M608.339,289.753l18.966-15.667l21.205,20.771l-19.773,13.961
		L608.339,289.753z M633.477,313.269l19.665-13.838l21.289,20.867l-19.255,13.285L633.477,313.269z M659.953,338.087l19.161-13.216
		l20.916,20.507l-18.438,12.927L659.953,338.087z M686.358,362.781l18.304-12.828l21.749,21.324l-18.102,12.058L686.358,362.781z
		 M734.845,408.151l-21.721-20.338l17.956-11.962l21.42,21.01L734.845,408.151z M740.141,369.809l35.636-23.78l22.022,21.88
		l-36.093,23.057L740.141,369.809z M967.101,669.494l-20.131-21.06l27.689-33.7l21.677,21.26L967.101,669.494z M993.326,696.884
		l-21.771-22.769l29.362-33.626l22.963,22.507L993.326,696.884z M1020.402,725.193l-22.622-23.637l30.664-34.056l23.092,22.645
		L1020.402,725.193z M1046.866,752.894l-22.022-23.055l31.303-35.191l24.958,24.477L1046.866,752.894z M1082.322,665.208
		l26.546,26.551l-20.144,19.879l-25.479-24.985L1082.322,665.208z M1055.051,637.964l22.721,22.721l-19.109,21.47l-23.045-22.625
		L1055.051,637.964z M1027.335,610.236l23.193,23.205l-19.487,21.61l-23.084-22.625L1027.335,610.236z M1000.439,583.35
		l22.368,22.36l-19.42,22.24l-21.917-21.514L1000.439,583.35z M971.627,554.515l24.272,24.286l-19.023,23.154l-24.141-23.684
		L971.627,554.515z M727.275,504.357l20.255,16.776l-24.911,23.42l-20.991-18.176L727.275,504.357z M696.698,530.589l21.228,18.366
		l-25.37,23.827l-21.24-20.41L696.698,530.589z M666.441,556.562l21.445,20.628l-24.793,23.277l-22.766-21.521L666.441,556.562z
		 M635.452,583.16l22.973,21.682l-25.598,24.074l-24.129-22.818L635.452,583.16z M603.788,610.283l24.37,23.038l-25.044,23.514
		l-24.983-24.501L603.788,610.283z M573.233,636.497l25.213,24.716l-23.973,22.531l-25.309-26.619L573.233,636.497z
		 M543.399,712.962l-26.896-27.775l27.824-23.879l25.489,26.817L543.399,712.962z M569.056,739.468l-18.243-18.828l26.356-24.763
		l17.208,18.122L569.056,739.468z M598.866,709.451l-17.04-17.958l24.25-22.768l16.835,16.517L598.866,709.451z M627.413,680.688
		l-16.68-16.349l25.178-23.677l16.112,15.233L627.413,680.688z M656.546,651.373l-15.944-15.093l25.6-24.069l15.065,14.223
		L656.546,651.373z M685.793,621.884l-14.91-14.083l24.691-23.2l13.927,13.384L685.793,621.884z M714.027,593.435l-13.769-13.236
		l25.778-24.213l13.551,11.72L714.027,593.435z M744.113,563.156l-13.397-11.601l25.116-23.588l12.722,10.542L744.113,563.156z
		 M775.271,532.925c-0.758,0.047-1.518,0.313-2.072,0.916l-0.118,0.099l-12.552-10.377l15.727-14.754
		C775.006,519.857,775.078,528.545,775.271,532.925z M831.184,650.094h-30.449c-1.395,0-2.563-1.153-2.563-2.57
		c0-1.425,1.167-2.58,2.563-2.58h1.889v-33.241h26.669v33.241h1.892c1.407,0,2.56,1.155,2.56,2.58
		C833.744,648.941,832.591,650.094,831.184,650.094z M778.47,537.018c0.35-1.087,0.133-2.311-0.746-3.202
		c-0.025-0.025-0.059-0.025-0.071-0.047l0.096-3.155h41.603v-49.245l10.145-8.977l16.198,15.86v42.362h43.216l6.513,6.404H778.47z
		 M922.308,533.552l-0.217,3.467c-0.047,0-0.119,0-0.181,0h-11.216l-6.523-6.404h17.739c0.397,0,0.758,0.099,1.121,0.217
		C923.031,531.648,922.898,532.757,922.308,533.552z M923.526,536.102c0,0,2.466-11.552,1.743-27.918l15.058,15.043l-15.981,19.783
		L923.526,536.102z M944.862,527.799l22.215,22.191l-18.919,23.78l-22.575-22.119L944.862,527.799z M927.315,568.309l14.166,13.863
		l-10.895,13.697L927.315,568.309z M931.648,604.841l14.428-18.144l23.998,23.538l-27.573,33.506l-7.132-7.439L931.648,604.841z"/>
</g>
</svg>
