<?xml version="1.0" encoding="utf-8"?>
<!-- Generator: Adobe Illustrator 16.0.0, SVG Export Plug-In . SVG Version: 6.00 Build 0)  -->
<!DOCTYPE svg PUBLIC "-//W3C//DTD SVG 1.0//EN" "http://www.w3.org/TR/2001/REC-SVG-20010904/DTD/svg10.dtd">
<svg version="1.0" id="Layer_1" xmlns="http://www.w3.org/2000/svg" xmlns:xlink="http://www.w3.org/1999/xlink" x="0px" y="0px"
	 width="1700px" height="1700px" viewBox="108 -251 1700 1700" enable-background="new 108 -251 1700 1700" xml:space="preserve">
<g>
	<g>
		<defs>
			<rect id="SVGID_1_" x="86.809" y="901.35" width="1737.755" height="564.134"/>
		</defs>
		<clipPath id="SVGID_2_">
			<use xlink:href="#SVGID_1_"  overflow="visible"/>
		</clipPath>
		<g clip-path="url(#SVGID_2_)">
			<path fill="#162758" d="M323.476,1433.315h-93.562c-39.118,0-70.839-31.722-70.839-70.84v-93.562
				c0-39.117,31.722-70.84,70.839-70.84h93.562c39.118,0,70.84,31.723,70.84,70.84v93.562
				C394.316,1401.594,362.594,1433.315,323.476,1433.315z"/>
			<path fill="#1DD9DA" d="M579.568,1363.813h-76.542c-31.989,0-58.009-25.93-58.009-58.008v-76.543
				c0-31.989,25.931-58.008,58.009-58.008h76.542c31.99,0,58.009,25.93,58.009,58.008v76.543
				C637.577,1337.883,611.646,1363.813,579.568,1363.813z"/>
			<path fill="#1DD9DA" d="M1192.266,1361.139h-93.563c-39.118,0-70.839-31.721-70.839-70.839v-93.563
				c0-39.117,31.721-70.839,70.839-70.839h93.563c39.116,0,70.84,31.722,70.84,70.839v93.563
				C1263.193,1329.418,1231.473,1361.139,1192.266,1361.139z"/>
			<path fill="#1DD9DA" d="M209.776,1342.427H-62.89c-29.494,0-53.464-23.969-53.464-53.464v-272.666
				c0-29.494,23.97-53.464,53.464-53.464h272.666c29.495,0,53.464,23.97,53.464,53.464v272.666
				C263.24,1318.458,239.359,1342.427,209.776,1342.427z"/>
			<path fill="#F5BD22" d="M271.26,1767.465H-1.406c-29.494,0-53.464-23.969-53.464-53.464v-272.666
				c0-29.494,23.97-53.464,53.464-53.464H271.26c29.494,0,53.464,23.97,53.464,53.464v272.666
				C324.813,1743.584,300.843,1767.465,271.26,1767.465z"/>
			<path fill="#162758" d="M147.224,1115.205H5.099c-15.416,0-27.891-12.475-27.891-27.89V945.19
				c0-15.415,12.475-27.891,27.891-27.891h142.125c15.415,0,27.89,12.476,27.89,27.891v142.125
				C175.024,1102.73,162.55,1115.205,147.224,1115.205z"/>
			<path fill="#162758" d="M529.58,1248.865H360.544c-18.267,0-33.148-14.792-33.148-33.147v-168.946
				c0-18.267,14.792-33.147,33.148-33.147H529.58c18.267,0,33.148,14.792,33.148,33.147v169.035
				C562.728,1233.985,547.847,1248.865,529.58,1248.865z"/>
			<path fill="#162758" d="M1449.247,1350.446h-169.034c-18.267,0-33.147-14.791-33.147-33.146v-168.947
				c0-18.267,14.792-33.147,33.147-33.147h169.034c18.267,0,33.148,14.792,33.148,33.147v169.036
				C1482.396,1335.655,1467.514,1350.446,1449.247,1350.446z"/>
			<path fill="#1DD9DA" d="M1912.78,1473.413h-272.666c-29.494,0-53.464-23.969-53.464-53.464v-272.666
				c0-29.493,23.97-53.464,53.464-53.464h272.666c29.494,0,53.464,23.971,53.464,53.464v272.666
				C1966.244,1449.533,1942.363,1473.413,1912.78,1473.413z"/>
			<path fill="#162758" d="M1086.674,1599.054H814.008c-29.495,0-53.464-23.97-53.464-53.464v-272.666
				c0-29.494,23.969-53.464,53.464-53.464h272.666c29.494,0,53.464,23.97,53.464,53.464v272.666
				C1140.138,1575.173,1116.257,1599.054,1086.674,1599.054z"/>
			<path fill="#162758" d="M1712.291,1657.864h-272.666c-29.494,0-53.464-23.97-53.464-53.464v-272.666
				c0-29.494,23.97-53.464,53.464-53.464h272.666c29.493,0,53.463,23.97,53.463,53.464V1604.4
				C1765.754,1633.983,1741.784,1657.864,1712.291,1657.864z"/>
			<path fill="#F5BD22" d="M924.321,1262.23H805.274c-12.92,0-23.345-10.424-23.345-23.345v-119.047
				c0-12.92,10.425-23.346,23.345-23.346h119.046c12.92,0,23.347,10.426,23.347,23.346v119.047
				C947.668,1251.807,937.241,1262.23,924.321,1262.23z"/>
			<path fill="#F5BD22" d="M303.338,1347.685v-21.118c0-11.852,9.624-21.475,21.475-21.475h740.297
				c11.852,0,21.475,9.623,21.475,21.475v21.118c0,11.851-9.623,21.475-21.475,21.475H324.902
				C313.051,1369.159,303.338,1359.535,303.338,1347.685z"/>
			<path fill="#1DD9DA" d="M824.701,1485.442L824.701,1485.442c0-34.661,28.157-62.819,62.82-62.819h542.748
				c34.663,0,62.82,28.158,62.82,62.819l0,0c0,34.663-28.157,62.82-62.82,62.82H887.521
				C852.858,1548.263,824.701,1520.194,824.701,1485.442z"/>
			<path fill="#D42475" d="M1688.231,1104.513v-56.138c0-11.851,9.534-21.385,21.386-21.385h395.633
				c11.851,0,21.386,9.534,21.386,21.385v56.138c0,11.852-9.535,21.386-21.386,21.386h-395.633
				C1697.854,1125.898,1688.231,1116.274,1688.231,1104.513z"/>
			<path fill="#D42475" d="M232.498,1465.839v-92.225c0-19.425,15.772-35.107,35.108-35.107h650.211
				c19.424,0,35.106,15.771,35.106,35.107v92.225c0,19.427-15.771,35.108-35.106,35.108H267.695
				C248.27,1500.947,232.498,1485.266,232.498,1465.839z"/>
			<path fill="#D42475" d="M1013.161,1420.395v-92.225c0-19.425,15.771-35.107,35.106-35.107h650.211
				c19.425,0,35.108,15.771,35.108,35.107v92.225c0,19.427-15.772,35.108-35.108,35.108h-650.211
				C1028.933,1455.503,1013.161,1439.821,1013.161,1420.395z"/>
			<path fill="#F5BD22" d="M1136.128,1201.193v-92.314c0-19.425,15.771-35.108,35.106-35.108h650.212
				c19.424,0,35.108,15.772,35.108,35.108v92.226c0,19.425-15.773,35.108-35.108,35.108h-650.212
				C1151.899,1236.302,1136.128,1220.529,1136.128,1201.193z"/>
			<path fill="#F5BD22" d="M434.324,1158.066H373.02c-25.128,0-45.534-20.406-45.534-45.534v-61.306
				c0-25.128,20.405-45.533,45.534-45.533h61.305c25.128,0,45.534,20.405,45.534,45.533v61.306
				C479.947,1137.66,459.542,1158.066,434.324,1158.066z"/>
			<path fill="#D42475" d="M683.021,1289.053h-61.395c-25.128,0-45.533-20.406-45.533-45.534v-61.305
				c0-25.129,20.405-45.533,45.533-45.533h61.305c25.128,0,45.534,20.404,45.534,45.533v61.305
				C728.554,1268.646,708.148,1289.053,683.021,1289.053z"/>
			<path fill="#D42475" d="M1608.036,1342.517h-61.307c-25.127,0-45.532-20.406-45.532-45.534v-61.305
				c0-25.129,20.405-45.533,45.532-45.533h61.307c25.127,0,45.533,20.404,45.533,45.533v61.305
				C1653.569,1322.11,1633.163,1342.517,1608.036,1342.517z"/>
			<path fill="#D42475" d="M1271.57,1203.511h-35.554c-14.614,0-26.376-11.852-26.376-26.377v-35.553
				c0-14.613,11.851-26.376,26.376-26.376h35.554c14.611,0,26.375,11.852,26.375,26.376v35.553
				C1298.034,1191.659,1286.182,1203.511,1271.57,1203.511z"/>
			<path fill="#F5BD22" d="M1627.193,1123.314h-35.554c-14.613,0-26.375-11.851-26.375-26.376v-35.553
				c0-14.614,11.851-26.376,26.375-26.376h35.554c14.614,0,26.376,11.852,26.376,26.376v35.553
				C1653.569,1111.464,1641.717,1123.314,1627.193,1123.314z"/>
			<path fill="#F5BD22" d="M329.536,1246.191h-65.583c-26.91,0-48.742-21.831-48.742-48.74v-65.583
				c0-26.91,21.832-48.741,48.742-48.741h65.583c26.91,0,48.741,21.831,48.741,48.741v65.583
				C378.277,1224.36,356.445,1246.191,329.536,1246.191z"/>
			<path fill="#1DD9DA" d="M480.304,1064.504H444.75c-14.614,0-26.375-11.851-26.375-26.376v-35.553
				c0-14.614,11.851-26.376,26.375-26.376h35.554c14.613,0,26.375,11.852,26.375,26.376v35.553
				C506.679,1052.653,494.828,1064.504,480.304,1064.504z"/>
		</g>
	</g>
</g>
</svg>
