<?xml version="1.0" encoding="utf-8"?>
<!-- Generator: Adobe Illustrator 16.0.0, SVG Export Plug-In . SVG Version: 6.00 Build 0)  -->
<!DOCTYPE svg PUBLIC "-//W3C//DTD SVG 1.0//EN" "http://www.w3.org/TR/2001/REC-SVG-20010904/DTD/svg10.dtd">
<svg version="1.0" id="Layer_1" xmlns="http://www.w3.org/2000/svg" xmlns:xlink="http://www.w3.org/1999/xlink" x="0px" y="0px"
	 width="1700px" height="1700px" viewBox="32.633 -279.943 1700 1700" enable-background="new 32.633 -279.943 1700 1700"
	 xml:space="preserve">
<g>
	<g>
		<g>
			<defs>
				<rect id="SVGID_1_" x="17.053" y="-295.861" width="1551.143" height="1731.836"/>
			</defs>
			<clipPath id="SVGID_2_">
				<use xlink:href="#SVGID_1_"  overflow="visible"/>
			</clipPath>
			<g clip-path="url(#SVGID_2_)">
				<path opacity="0.24" fill="#00B7C5" enable-background="new    " d="M874.319,997.345l-361.995,361.997
					c-17.467,17.467-17.467,45.786,0,63.251l361.995,361.996c17.466,17.468,45.785,17.468,63.251,0l361.996-361.996
					c17.467-17.468,17.467-45.784,0-63.251L937.571,997.345C920.104,979.88,891.786,979.88,874.319,997.345z"/>
				<path fill="#F43B62" d="M373.945,236.832l-222.111,222.11c-20.262,20.261-20.262,53.113,0,73.376l222.111,222.111
					c20.263,20.262,53.114,20.262,73.376,0l222.111-222.113c20.261-20.261,20.261-53.113,0-73.374l-222.111-222.11
					C427.059,216.568,394.208,216.568,373.945,236.832z"/>
				<path fill="#F43B62" d="M908.174,938.225l-49.449,49.45c-4.511,4.509-4.511,11.824,0,16.334l49.449,49.45
					c4.51,4.509,11.824,4.509,16.336,0l49.447-49.45c4.512-4.51,4.512-11.825,0-16.334l-49.447-49.45
					C919.999,933.715,912.686,933.715,908.174,938.225z"/>
				<path fill="#F43B62" d="M660.816,1130.615l-49.448,49.45c-4.512,4.51-4.512,11.824,0,16.334l49.448,49.45
					c4.511,4.51,11.824,4.51,16.336,0l49.448-49.45c4.511-4.51,4.511-11.824,0-16.334l-49.448-49.45
					C672.641,1126.105,665.329,1126.105,660.816,1130.615z"/>
				<path fill="#F43B62" d="M113.881,583.678l-49.448,49.45c-4.51,4.51-4.51,11.824,0,16.337l49.448,49.447
					c4.512,4.512,11.826,4.512,16.336,0l49.448-49.447c4.513-4.513,4.513-11.827,0-16.337l-49.448-49.45
					C125.707,579.168,118.393,579.168,113.881,583.678z"/>
				<path fill="#F43B62" d="M174.346,198.902l-49.448,49.447c-4.511,4.511-4.511,11.824,0,16.337l49.448,49.447
					c4.511,4.511,11.825,4.511,16.336,0l49.448-49.447c4.51-4.513,4.51-11.826,0-16.337l-49.448-49.447
					C186.171,194.389,178.858,194.389,174.346,198.902z"/>
				<path fill="#F43B62" d="M147.868-98.934l-26.724,26.722c-2.438,2.438-2.438,6.393,0,8.828l26.724,26.725
					c2.438,2.437,6.391,2.437,8.829,0l26.724-26.725c2.438-2.436,2.438-6.391,0-8.828l-26.724-26.722
					C154.259-101.373,150.306-101.373,147.868-98.934z"/>
				<path fill="#F0ECD3" d="M546.153,106L44.636-395.518c-20.262-20.261-53.115-20.261-73.377,0l-55.629,55.631
					c-20.261,20.262-20.261,53.113,0,73.376l501.518,501.518c20.263,20.262,53.114,20.262,73.376,0l55.63-55.631
					C566.416,159.114,566.416,126.26,546.153,106z"/>
				<path fill="#F0ECD3" d="M840.858,168.258L272.639-399.96c-16.326-16.327-42.797-16.327-59.124,0l0,0
					c-16.328,16.326-16.326,42.799,0,59.126l568.219,568.218c16.327,16.327,42.798,16.327,59.125,0l0,0
					C857.185,211.056,857.185,184.584,840.858,168.258z"/>
				<path fill="#F43B62" d="M574.262-157.003L365.186-366.081c-12.035-12.034-31.548-12.034-43.584,0l0,0
					c-12.035,12.034-12.035,31.549,0,43.583l209.076,209.078c12.034,12.033,31.547,12.033,43.584,0l0,0
					C586.297-125.455,586.297-144.97,574.262-157.003z"/>
				<path fill="#F43B62" d="M270.468,1244.314L-13.401,960.446c-22.679-22.68-59.45-22.68-82.128,0l0,0
					c-22.68,22.68-22.68,59.45,0,82.13l283.866,283.868c22.68,22.677,59.451,22.677,82.128,0l0,0
					C293.146,1303.764,293.146,1266.994,270.468,1244.314z"/>
				<path fill="#00B7C5" d="M407.09,1237.047l-172.929-172.929c-13.817-13.815-36.217-13.815-50.032,0l0,0
					c-13.816,13.815-13.816,36.215,0,50.033l172.93,172.929c13.817,13.815,36.217,13.815,50.031,0l0,0
					C420.907,1273.265,420.907,1250.864,407.09,1237.047z"/>
				<path fill="#00B7C5" d="M737.907,235.503L325.15-177.251c-25.358-25.357-66.469-25.357-91.826,0l0,0
					c-25.357,25.357-25.357,66.47,0,91.826L646.08,327.331c25.359,25.357,66.47,25.357,91.827,0l0,0
					C763.264,301.973,763.264,260.862,737.907,235.503z"/>
				<path fill="#00B7C5" d="M76.93,33.606l-365.298,365.298c-38.463,38.461-38.463,100.821,0,139.285l34.98,34.979
					c38.464,38.463,100.822,38.463,139.284,0l365.298-365.297c38.462-38.464,38.462-100.823,0-139.285l-34.982-34.979
					C177.752-4.858,115.392-4.858,76.93,33.606z"/>
				<path fill="#F0ECD3" d="M1108.252,847.853L207.672-52.727c-25.356-25.357-66.469-25.357-91.825,0l0,0
					c-25.357,25.357-25.356,66.468,0,91.826l900.58,900.58c25.359,25.359,66.469,25.359,91.828,0l0,0
					C1133.61,914.323,1133.61,873.212,1108.252,847.853z"/>
				<path fill="#00B7C5" d="M820.357,112.98L647.751,285.587c-8.327,8.329-8.327,21.831,0,30.159l172.606,172.607
					c8.327,8.328,21.832,8.328,30.159,0l172.607-172.607c8.326-8.328,8.326-21.83,0-30.159L850.519,112.98
					C842.189,104.654,828.687,104.654,820.357,112.98z"/>
				<path fill="#00B7C5" d="M683.75,721.107L511.144,893.714c-8.329,8.328-8.329,21.831,0,30.158l172.606,172.608
					c8.328,8.327,21.832,8.327,30.159,0l172.607-172.608c8.326-8.327,8.326-21.83,0-30.158L713.909,721.107
					C705.582,712.78,692.078,712.78,683.75,721.107z"/>
				<path fill="#1A4266" d="M156.985,355.32L53.246,459.059c-5.006,5.005-5.006,13.121,0,18.126l103.739,103.739
					c5.005,5.006,13.122,5.006,18.125,0l103.74-103.739c5.006-5.005,5.006-13.121,0-18.126l-103.74-103.74
					C170.105,350.314,161.99,350.314,156.985,355.32z"/>
				<path fill="#1A4266" d="M447.828,1095.646l-103.739,103.739c-5.006,5.006-5.006,13.121,0,18.127l103.739,103.739
					c5.005,5.006,13.121,5.006,18.126,0l103.739-103.739c5.006-5.006,5.006-13.121,0-18.127l-103.739-103.739
					C460.949,1090.643,452.832,1090.643,447.828,1095.646z"/>
				<path fill="#00B7C5" d="M106.472,632.973L-66.135,805.581c-8.328,8.328-8.328,21.831,0,30.161l172.606,172.604
					c8.327,8.328,21.831,8.328,30.159,0l172.607-172.607c8.327-8.327,8.327-21.83,0-30.158L136.631,632.973
					C128.302,624.646,114.799,624.646,106.472,632.973z"/>
				<path fill="#F43B62" d="M788.284,307.562L536.748,559.098c-12.136,12.139-12.136,31.814,0,43.952l251.536,251.536
					c12.136,12.137,31.814,12.137,43.95,0l251.536-251.539c12.139-12.138,12.139-31.811,0-43.95L832.234,307.562
					C820.099,295.423,800.42,295.423,788.284,307.562z"/>
				<path fill="#F0ECD3" d="M355.303,595.5L110.331,840.466c-11.818,11.822-11.818,30.984,0,42.807l316.274,316.272
					c11.819,11.822,30.984,11.822,42.805,0L714.379,954.58c11.821-11.822,11.821-30.987,0-42.807L398.106,595.5
					C386.286,583.678,367.121,583.678,355.303,595.5z"/>
				<path fill="#F43B62" d="M171.598-293.068l-49.449,49.449c-4.51,4.51-4.51,11.825,0,16.335l49.449,49.449
					c4.511,4.51,11.825,4.51,16.335,0l49.449-49.449c4.511-4.51,4.511-11.825,0-16.335l-49.449-49.449
					C183.423-297.578,176.109-297.578,171.598-293.068z"/>
				<path fill="#F43B62" d="M513.74,165.983l-29.224,29.223c-5.073,5.073-5.073,13.298,0,18.372l29.224,29.222
					c5.073,5.073,13.298,5.073,18.369,0l29.225-29.222c5.072-5.074,5.072-13.299,0-18.372l-29.225-29.223
					C527.038,160.91,518.813,160.91,513.74,165.983z"/>
			</g>
		</g>
	</g>
</g>
</svg>
