<?xml version="1.0" encoding="utf-8"?>
<!-- Generator: Adobe Illustrator 16.0.0, SVG Export Plug-In . SVG Version: 6.00 Build 0)  -->
<!DOCTYPE svg PUBLIC "-//W3C//DTD SVG 1.0//EN" "http://www.w3.org/TR/2001/REC-SVG-20010904/DTD/svg10.dtd">
<svg version="1.0" id="Layer_1" xmlns="http://www.w3.org/2000/svg" xmlns:xlink="http://www.w3.org/1999/xlink" x="0px" y="0px"
	 width="1700px" height="1700px" viewBox="0 -350 1700 1700" enable-background="new 0 -350 1700 1700" xml:space="preserve">
<g>
	<g opacity="0.4">
		<g>
			<polygon fill="#E6E6E6" points="-12.831,-372.929 -12.831,0.578 360.676,-372.929 			"/>
			<polygon fill="#E7E7E7" points="58.608,-372.929 466.035,34.497 873.462,-372.929 			"/>
			<polygon fill="#DFDFDF" points="571.396,-372.929 978.821,34.497 1386.247,-372.929 			"/>
			<polygon fill="#E6E6E6" points="1084.181,-372.929 1491.607,34.497 1712.831,-186.726 1712.831,-372.929 			"/>
		</g>
		<polygon fill="#F5F5F5" points="315.002,-372.929 722.429,34.497 1129.854,-372.929 		"/>
		<polygon fill="#F5F5F5" points="827.163,-372.929 1234.589,34.497 1642.016,-372.929 		"/>
		<polygon fill="#EFEFEF" points="1339.323,-372.929 1712.831,0.578 1712.831,-372.929 		"/>
		<polygon fill="#F5F5F5" points="-12.831,-372.929 -12.831,-189.395 211.061,34.497 618.486,-372.929 		"/>
	</g>
	<g>
		<g>
			<polygon fill="#FF5B59" points="1712.831,1367.584 1712.831,925.464 1270.711,1367.584 			"/>
			<polygon fill="#1BC5C8" points="1710.004,1367.584 1233.964,891.545 757.925,1367.584 			"/>
			<polygon fill="#944ABD" points="1197.218,1367.584 721.179,891.545 245.14,1367.584 			"/>
			<polygon fill="#FF5B59" points="684.432,1367.584 208.393,891.545 -12.831,1112.769 -12.831,1367.584 			"/>
		</g>
		<polygon fill="#FFD838" points="1453.61,1367.584 977.571,891.545 501.532,1367.584 		"/>
		<polygon fill="#FFD838" points="941.45,1367.584 465.41,891.545 -10.629,1367.584 		"/>
		<polygon fill="#6BD8DC" points="429.288,1367.584 -12.831,925.464 -12.831,1367.584 		"/>
		<polygon fill="#FFD838" points="1712.831,1367.584 1712.831,1115.437 1488.939,891.545 1012.9,1367.584 		"/>
	</g>
</g>
<g id="Vexels">
</g>
</svg>
