
		<svg width="3262.634504780522" height="932.3524919708524" xmlns="http://www.w3.org/2000/svg" xmlns:xlink="http://www.w3.org/1999/xlink" version="1.1">
			<g transform="scale(13.131725239026098) translate(10, 10)">
				<g id="SvgjsG1008" rel="mainfill" name="main_text" xmlns:name="mainText_mainfill" transform="translate(56.87609592437741, -18.05399513244631)" fill="#0d86d5"><path fill="#0d86d5" d="M17.391 54.773999999999994 c0 -2.805 -1.989 -4.641 -6.681 -6.936 s-9.027 -4.794 -9.027 -10.506 c0 -5.202 4.335 -8.619 9.792 -8.619 c3.774 0 5.304 1.224 6.528 1.224 c0.612 0 1.071 -0.204 1.224 -0.816 l2.04 0 l0.408 7.344 l-1.275 -0.051 c-0.816 -0.051 -1.224 -0.255 -1.632 -1.122 c-1.377 -2.958 -3.672 -4.437 -6.12 -4.437 c-2.958 0 -4.641 1.989 -4.641 4.284 c0 3.009 2.193 4.539 5.916 6.273 c3.876 1.836 10.302 4.284 10.302 11.016 c0 6.579 -6.018 9.486 -10.506 9.486 c-4.59 0 -6.528 -1.989 -8.109 -1.989 c-1.173 0 -1.53 0.663 -1.683 1.275 l-2.142 0 l-0.51 -7.752 l1.683 0 c0.816 0 1.224 0.204 1.479 0.969 c1.071 3.213 4.386 5.202 7.905 5.202 c3.009 0 5.049 -1.887 5.049 -4.845 z M47.942040000000006 54.824999999999996 c0 1.887 1.224 2.295 3.213 1.938 l0 2.142 c-4.947 1.224 -7.293 2.958 -8.568 2.958 c-1.122 0 -1.632 -0.612 -1.53 -1.887 l0.306 -3.774 c-1.071 2.652 -3.264 5.661 -7.854 5.661 c-3.876 0 -7.65 -1.938 -7.65 -6.528 c0 -4.896 3.57 -7.905 15.198 -10.302 l-0.051 -3.111 c-0.051 -3.672 -0.561 -4.947 -2.397 -4.947 c-6.885 0 -2.754 7.854 -8.313 7.854 c-1.989 0 -2.907 -1.122 -2.907 -2.703 c0 -3.825 5.049 -6.936 11.577 -6.936 c5.61 0 8.976 1.326 8.976 7.395 l0 12.24 z M36.11004 58.854 c2.958 0 4.539 -3.876 4.947 -5.661 l0 -6.375 c-7.548 1.581 -8.211 5.814 -8.211 7.956 c0 2.397 1.224 4.08 3.264 4.08 z M58.24608 32.38499999999999 c-1.989 0 -3.621 -1.632 -3.621 -3.621 s1.632 -3.57 3.621 -3.57 s3.57 1.581 3.57 3.57 s-1.581 3.621 -3.57 3.621 z M62.07108 57.37499999999999 c0 1.275 1.377 1.683 3.213 1.887 l0 1.938 c-4.386 -0.153 -8.823 -0.153 -13.209 0 l0 -1.938 c1.734 -0.204 3.111 -0.612 3.111 -1.887 l0 -15.351 c0 -1.887 -1.224 -2.295 -3.162 -2.142 l0 -1.938 c5.355 -0.867 7.497 -2.907 8.925 -2.907 c0.867 0 1.428 0.51 1.428 1.428 c0 2.091 -0.306 4.029 -0.306 7.242 l0 13.668 z M75.58812 55.589999999999996 c0 1.887 1.224 2.295 3.213 2.091 l0 1.887 c-4.845 1.071 -7.242 2.295 -8.517 2.295 c-1.071 0 -1.479 -0.51 -1.479 -1.683 l0 -26.979 c0 -1.887 -1.224 -2.295 -3.162 -1.989 l0 -1.938 c5.049 -1.02 7.191 -3.315 8.568 -3.315 c1.02 0 1.377 0.561 1.377 1.734 l0 27.897 z M91.04316 49.113 l0 8.313 c0 1.275 0.867 1.632 3.672 1.836 l0 1.938 c-4.845 -0.153 -9.69 -0.153 -14.535 0 l0 -1.938 c2.805 -0.204 3.672 -0.561 3.672 -1.836 l0 -23.817 c0 -1.275 -0.867 -1.938 -3.366 -2.142 l0 -1.938 c4.947 0.204 9.843 0 12.699 0 c11.169 0 14.484 3.723 14.484 8.976 c0 5.355 -4.386 8.925 -15.504 10.455 z M91.04316 46.971 l1.02 -0.102 c6.528 -0.663 8.772 -3.876 8.772 -8.364 c0 -4.08 -1.887 -6.936 -6.477 -6.936 l-3.315 0 l0 15.402 z M131.3862 54.824999999999996 c0 1.887 1.224 2.295 3.213 1.938 l0 2.142 c-4.947 1.224 -7.293 2.958 -8.568 2.958 c-1.122 0 -1.632 -0.612 -1.53 -1.887 l0.306 -3.774 c-1.071 2.652 -3.264 5.661 -7.854 5.661 c-3.876 0 -7.65 -1.938 -7.65 -6.528 c0 -4.896 3.57 -7.905 15.198 -10.302 l-0.051 -3.111 c-0.051 -3.672 -0.561 -4.947 -2.397 -4.947 c-6.885 0 -2.754 7.854 -8.313 7.854 c-1.989 0 -2.907 -1.122 -2.907 -2.703 c0 -3.825 5.049 -6.936 11.577 -6.936 c5.61 0 8.976 1.326 8.976 7.395 l0 12.24 z M119.5542 58.854 c2.958 0 4.539 -3.876 4.947 -5.661 l0 -6.375 c-7.548 1.581 -8.211 5.814 -8.211 7.956 c0 2.397 1.224 4.08 3.264 4.08 z M155.30724 54.111 c0 4.539 -4.488 7.752 -8.568 7.752 c-3.519 0 -5.661 -1.836 -6.987 -1.836 c-0.612 0 -0.969 0.357 -1.02 1.122 l-1.989 0 l-0.612 -7.089 l1.071 0 c0.765 0 1.275 0.153 1.53 0.918 c0.867 2.754 4.437 4.998 7.191 4.998 c2.193 0 3.57 -1.428 3.57 -3.366 c0 -2.55 -2.193 -3.672 -5.304 -5.151 c-3.417 -1.632 -8.211 -3.978 -8.211 -8.925 c0 -4.335 3.621 -7.293 8.16 -7.293 c3.519 0 4.641 1.428 5.916 1.428 c0.714 0 1.071 -0.408 1.224 -1.02 l1.989 0 l0.459 6.987 l-1.02 0 c-0.765 0 -1.275 -0.204 -1.581 -0.969 c-1.224 -2.958 -3.621 -4.59 -5.967 -4.59 c-2.091 0 -3.57 1.428 -3.57 3.366 c0 2.244 1.836 3.366 4.539 4.59 c3.111 1.428 9.18 3.825 9.18 9.078 z M171.57828 59.772 c-1.122 0.969 -3.06 1.785 -5.253 1.785 c-4.386 0 -7.191 -2.295 -7.191 -7.65 l0 -16.065 l-2.04 0 c-0.459 0 -0.663 -0.255 -0.663 -0.714 l0 -0.765 c0 -0.459 0.204 -0.714 0.663 -0.714 c3.774 0 5.304 -2.652 5.814 -6.936 l3.111 0 l0 6.936 l4.896 0 c0.459 0 0.663 0.255 0.663 0.714 l0 0.765 c0 0.459 -0.204 0.714 -0.663 0.714 l-4.896 0 l0 17.034 c0 2.244 0.357 4.08 2.448 4.08 c1.224 0 2.397 -0.714 3.111 -1.479 l0 2.295 z" style="fill: #0d86d5;"/></g><defs id="SvgjsDefs1002"/><g id="SvgjsG1009" fill="#0d86d5" rel="mainfill" name="symbol" xmlns:name="symbol_mainfill" transform="translate(-3.924449844360345, 0) scale(0.5099999999999996)"><g xmlns="http://www.w3.org/2000/svg"><path d="M37.451,66.943l0.898-0.659c-1.846-2.505-2.822-5.474-2.822-8.589h-0.557h-0.557h-9.37l9.868-3.882   c-0.132,0.508-0.244,1.025-0.322,1.548l1.099,0.166c0.156-1.011,0.42-1.992,0.771-2.93l-0.718-1.196   c-0.249,0.566-0.464,1.147-0.645,1.743L23.55,57.695l0,0l11.323,3.765C35.356,63.423,36.226,65.278,37.451,66.943z" fill="#0d86d5" style="fill: #0d86d5;"/><path d="M50,43.223v-0.557v-0.557v-9.365l3.877,9.854c-0.503-0.127-1.021-0.234-1.543-0.313l-0.166,1.104   c3.071,0.459,5.859,1.87,8.066,4.072l0.391-0.391l0.396-0.396l7.681-7.681l-10.664,5.347c-1.094-0.659-2.261-1.182-3.486-1.553   L50,31.25l-3.76,11.318c-0.869,0.215-1.719,0.508-2.534,0.869l1.191,0.718C46.514,43.55,48.232,43.223,50,43.223z" fill="#0d86d5" style="fill: #0d86d5;"/><path d="M50,72.168v0.557v0.557v9.37l-3.877-9.858c0.503,0.132,1.021,0.234,1.543,0.313l0.166-1.099   c-3.071-0.464-5.864-1.875-8.066-4.077l-0.391,0.396l-0.396,0.391l-7.681,7.681l10.664-5.342c1.094,0.659,2.261,1.177,3.486,1.553   L50,84.146l0,0l0,0l0,0v-0.005l3.76-11.318c0.869-0.215,1.714-0.508,2.534-0.869l-1.196-0.718   C53.486,71.846,51.768,72.168,50,72.168z" fill="#0d86d5" style="fill: #0d86d5;"/><path d="M52.3,56.313c0.249,0.415,0.391,0.889,0.391,1.382c0,0.718-0.278,1.396-0.786,1.904c-0.513,0.508-1.187,0.786-1.904,0.786   c-0.498,0-0.967-0.142-1.382-0.391l-3.359,3.359l26.172,15.771L55.659,52.954L52.3,56.313z" fill="#0d86d5" style="fill: #0d86d5;"/><path d="M47.7,59.077c-0.62-1.035-0.493-2.393,0.396-3.281c0.508-0.508,1.187-0.791,1.904-0.791c0.498,0,0.967,0.142,1.382,0.391   l3.359-3.359L28.569,36.265l15.771,26.172L47.7,59.077z M47.31,55.01c-1.055,1.05-1.353,2.573-0.908,3.896l-1.333,1.338   L33.271,40.967L47.31,55.01z" fill="#0d86d5" style="fill: #0d86d5;"/><path d="M54.258,15.605c-0.156-2.217-2.002-3.965-4.258-3.965s-4.102,1.748-4.258,3.965c-21.333,2.144-38.047,20.2-38.047,42.09   C7.695,81.021,26.675,100,50,100s42.305-18.979,42.305-42.305C92.305,35.806,75.591,17.749,54.258,15.605z M50,95.918   c-21.074,0-38.223-17.148-38.223-38.223S28.926,19.473,50,19.473s38.223,17.148,38.223,38.223S71.074,95.918,50,95.918z" fill="#0d86d5" style="fill: #0d86d5;"/><path d="M50,20.586c-20.493,0-37.109,16.616-37.109,37.109c0,20.498,16.616,37.109,37.109,37.109s37.109-16.611,37.109-37.109   C87.109,37.202,70.493,20.586,50,20.586z M75.762,82.285c-0.327-0.313-0.84-0.313-1.162,0.01s-0.322,0.84-0.01,1.167   c-3.047,2.905-6.602,5.278-10.522,6.968c-0.176-0.425-0.659-0.63-1.084-0.459s-0.63,0.654-0.464,1.079   c-3.647,1.372-7.583,2.153-11.685,2.251c-0.015-0.454-0.381-0.815-0.835-0.815s-0.82,0.361-0.835,0.815   c-4.36-0.103-8.525-0.986-12.363-2.515c0.176-0.425-0.024-0.908-0.444-1.089c-0.42-0.176-0.903,0.015-1.089,0.435   c-3.657-1.665-6.987-3.931-9.858-6.67c0.313-0.327,0.313-0.845-0.01-1.167s-0.835-0.322-1.162-0.01   c-2.91-3.047-5.283-6.602-6.973-10.522c0.425-0.171,0.63-0.659,0.459-1.084s-0.654-0.63-1.079-0.464   c-1.372-3.647-2.153-7.583-2.246-11.685c0.449-0.015,0.811-0.381,0.811-0.835s-0.361-0.82-0.811-0.83   c0.098-4.365,0.981-8.525,2.51-12.368c0.425,0.176,0.908-0.02,1.089-0.444c0.176-0.42-0.015-0.903-0.43-1.089   c1.665-3.657,3.926-6.987,6.67-9.854c0.327,0.308,0.84,0.308,1.162-0.015s0.322-0.835,0.01-1.162   c3.047-2.905,6.602-5.283,10.522-6.973c0.176,0.425,0.659,0.63,1.084,0.459s0.63-0.654,0.464-1.079   c3.403-1.279,7.051-2.051,10.854-2.227L50,25.571l1.665-3.457c4.058,0.186,7.939,1.06,11.533,2.495   c-0.176,0.42,0.024,0.903,0.444,1.084s0.903-0.015,1.089-0.43c3.662,1.665,6.987,3.926,9.858,6.67   c-0.313,0.327-0.313,0.84,0.01,1.162s0.84,0.322,1.162,0.015c2.91,3.042,5.283,6.597,6.973,10.518   c-0.425,0.176-0.63,0.659-0.459,1.084s0.654,0.635,1.079,0.464c1.372,3.652,2.153,7.583,2.246,11.689   c-0.449,0.01-0.811,0.376-0.811,0.83s0.361,0.82,0.811,0.835c-0.098,4.36-0.981,8.525-2.51,12.363   c-0.425-0.176-0.908,0.024-1.089,0.444c-0.176,0.42,0.015,0.908,0.43,1.089C80.767,76.089,78.506,79.414,75.762,82.285z" fill="#0d86d5" style="fill: #0d86d5;"/><path d="M76.445,57.695l-11.318-3.76c-0.483-1.968-1.353-3.823-2.578-5.483l-0.898,0.659c1.846,2.5,2.822,5.469,2.822,8.584h0.557   h0.557h9.365l-9.863,3.882c0.132-0.508,0.244-1.021,0.322-1.548l-1.099-0.166c-0.156,1.016-0.42,1.992-0.771,2.935l0.718,1.191   c0.249-0.562,0.459-1.147,0.645-1.738l11.548-4.556l0,0l0,0l0,0H76.445z" fill="#0d86d5" style="fill: #0d86d5;"/><circle cx="50" cy="57.695" r="1.298"/><path d="M44.561,14.39c0.156-0.547,0.396-1.064,0.708-1.528c-1.255-0.391-2.354-1.045-2.612-2.148   c-0.439-1.885,0.156-4.028,1.626-5.879C45.83,2.881,48.022,1.67,50,1.67s4.17,1.211,5.718,3.164   c1.47,1.851,2.065,3.994,1.626,5.879c-0.259,1.104-1.357,1.758-2.612,2.148c0.308,0.464,0.552,0.981,0.708,1.528   c1.66-0.562,3.12-1.553,3.53-3.301c0.552-2.383-0.156-5.039-1.943-7.295C55.166,1.455,52.476,0,50,0s-5.166,1.455-7.026,3.794   c-1.787,2.256-2.495,4.912-1.943,7.295C41.436,12.837,42.9,13.828,44.561,14.39z" fill="#0d86d5" style="fill: #0d86d5;"/></g></g>
			</g>
		</svg>
	