<svg id="Layer_1" data-name="Layer 1" xmlns="http://www.w3.org/2000/svg" viewBox="0 0 650.12 251.98"><defs><style>.cls-1,.cls-6,.cls-9{fill:lime;}.cls-2,.cls-4,.cls-5,.cls-7{fill:none;}.cls-2,.cls-3,.cls-6,.cls-7,.cls-8{stroke:#000;}.cls-2,.cls-4,.cls-5,.cls-7,.cls-8{stroke-linecap:round;stroke-linejoin:round;}.cls-2{stroke-width:6px;}.cls-3,.cls-6{stroke-miterlimit:10;}.cls-4{stroke:#fff;}.cls-4,.cls-5,.cls-7,.cls-8{stroke-width:4px;}.cls-5{stroke:lime;}.cls-9{font-size:154.73px;font-family:Mistral, Mistral;}</style></defs><title>logo-uni_mixed_long</title><path d="M984.93,407.5a28.07,28.07,0,1,1-28.07,28.07,28.1,28.1,0,0,1,28.07-28.07m0-4A32.07,32.07,0,1,0,1017,435.57a32.07,32.07,0,0,0-32.07-32.07Z" transform="translate(-366.88 -291.02)"/><path class="cls-1" d="M984.93,457.62A22.05,22.05,0,1,1,1007,435.57,22.08,22.08,0,0,1,984.93,457.62Z" transform="translate(-366.88 -291.02)"/><path d="M984.93,415.52a20.05,20.05,0,1,1-20.05,20.05,20.07,20.07,0,0,1,20.05-20.05m0-4A24.05,24.05,0,1,0,1009,435.57a24.05,24.05,0,0,0-24.05-24.05Z" transform="translate(-366.88 -291.02)"/><line class="cls-2" x1="514.11" y1="76.81" x2="551.4" y2="37.35"/><line class="cls-2" x1="499.36" y1="147.92" x2="528.85" y2="216.86"/><line class="cls-2" x1="527.55" y1="119.74" x2="582.61" y2="134.91"/><path d="M851.85,364.21a35.28,35.28,0,1,1-35.28,35.28,35.32,35.32,0,0,1,35.28-35.28m0-4a39.28,39.28,0,1,0,39.28,39.28,39.28,39.28,0,0,0-39.28-39.28Z" transform="translate(-366.88 -291.02)"/><path d="M851.85,371.43a28.07,28.07,0,1,1-28.07,28.07,28.1,28.1,0,0,1,28.07-28.07m0-4a32.07,32.07,0,1,0,32.07,32.07,32.07,32.07,0,0,0-32.07-32.07Z" transform="translate(-366.88 -291.02)"/><path class="cls-1" d="M851.85,422.55A23.05,23.05,0,1,1,874.9,399.5,23.08,23.08,0,0,1,851.85,422.55Z" transform="translate(-366.88 -291.02)"/><path d="M851.85,377.44A22.05,22.05,0,1,1,829.8,399.5a22.08,22.08,0,0,1,22.05-22.05m0-2A24.05,24.05,0,1,0,875.9,399.5a24.05,24.05,0,0,0-24.05-24.05Z" transform="translate(-366.88 -291.02)"/><path d="M905.16,540a13.44,13.44,0,1,1,13.43-13.43A13.45,13.45,0,0,1,905.16,540Z" transform="translate(-366.88 -291.02)"/><path d="M905.16,516.13a10.43,10.43,0,1,1-10.43,10.43,10.45,10.45,0,0,1,10.43-10.43m0-6a16.43,16.43,0,1,0,16.43,16.43,16.43,16.43,0,0,0-16.43-16.43Z" transform="translate(-366.88 -291.02)"/><path class="cls-3" d="M796.87,475.58A18.43,18.43,0,0,1,778.44,494a18.76,18.76,0,0,1-3.59-.35,18.43,18.43,0,1,1,22-18.08Z" transform="translate(-366.88 -291.02)"/><line class="cls-4" x1="396.61" y1="192.58" x2="406.79" y2="178.92"/><line class="cls-5" x1="410.89" y1="185.46" x2="421.75" y2="170.9"/><line class="cls-4" x1="409.18" y1="201.25" x2="418.93" y2="188.03"/><line class="cls-5" x1="404.84" y1="168.73" x2="395.09" y2="182.39"/><line class="cls-5" x1="419.8" y1="195.83" x2="428.69" y2="183.91"/><path class="cls-6" d="M955.13,309.95a18.43,18.43,0,0,1-18.43,18.43,18.76,18.76,0,0,1-3.59-.35,18.43,18.43,0,1,1,22-18.08Z" transform="translate(-366.88 -291.02)"/><line class="cls-7" x1="554.86" y1="26.95" x2="565.05" y2="13.29"/><line class="cls-4" x1="569.14" y1="19.83" x2="580.01" y2="5.27"/><line class="cls-7" x1="567.44" y1="35.62" x2="577.19" y2="22.4"/><line class="cls-4" x1="563.1" y1="3.1" x2="553.35" y2="16.76"/><line class="cls-4" x1="578.06" y1="30.2" x2="586.95" y2="18.28"/><path class="cls-6" d="M770.85,329.46a18.43,18.43,0,0,1-18.43,18.43,18.76,18.76,0,0,1-3.59-.35,18.43,18.43,0,1,1,22-18.08Z" transform="translate(-366.88 -291.02)"/><line class="cls-4" x1="370.59" y1="46.46" x2="380.78" y2="32.8"/><line class="cls-8" x1="384.87" y1="39.34" x2="395.74" y2="24.78"/><line class="cls-4" x1="383.16" y1="55.13" x2="392.92" y2="41.91"/><line class="cls-7" x1="378.83" y1="22.61" x2="369.07" y2="36.27"/><line class="cls-7" x1="393.79" y1="49.71" x2="402.68" y2="37.79"/><line class="cls-2" x1="403.98" y1="54.26" x2="446.03" y2="84.62"/><line class="cls-2" x1="427.63" y1="167.86" x2="453.21" y2="136.65"/><text class="cls-9" transform="translate(0 147.49)">Unizonn</text></svg>