<svg id="Layer_1" data-name="Layer 1" xmlns="http://www.w3.org/2000/svg" viewBox="0 0 866.12 260.26"><defs><style>.cls-1,.cls-3,.cls-7{fill:lime;}.cls-2,.cls-4,.cls-5{fill:none;}.cls-2,.cls-3{stroke:lime;}.cls-2,.cls-4,.cls-5,.cls-6{stroke-linecap:round;stroke-linejoin:round;}.cls-2{stroke-width:6px;}.cls-3{stroke-miterlimit:10;}.cls-4{stroke:#fff;}.cls-4,.cls-5,.cls-6{stroke-width:4px;}.cls-5,.cls-6{stroke:#000;}.cls-7{font-size:154.73px;font-family:Mistral, Mistral;}</style></defs><title>logo-uni-green</title><path class="cls-1" d="M984.93,407.5a28.07,28.07,0,1,1-28.07,28.07,28.1,28.1,0,0,1,28.07-28.07m0-4A32.07,32.07,0,1,0,1017,435.57a32.07,32.07,0,0,0-32.07-32.07Z" transform="translate(-150.88 -282.74)"/><path class="cls-1" d="M984.93,457.62A22.05,22.05,0,1,1,1007,435.57,22.08,22.08,0,0,1,984.93,457.62Z" transform="translate(-150.88 -282.74)"/><path class="cls-1" d="M984.93,415.52a20.05,20.05,0,1,1-20.05,20.05,20.07,20.07,0,0,1,20.05-20.05m0-4A24.05,24.05,0,1,0,1009,435.57a24.05,24.05,0,0,0-24.05-24.05Z" transform="translate(-150.88 -282.74)"/><line class="cls-2" x1="730.11" y1="85.09" x2="767.4" y2="45.63"/><line class="cls-2" x1="715.36" y1="156.2" x2="744.85" y2="225.14"/><line class="cls-2" x1="743.55" y1="128.02" x2="798.61" y2="143.19"/><path class="cls-1" d="M851.85,364.21a35.28,35.28,0,1,1-35.28,35.28,35.32,35.32,0,0,1,35.28-35.28m0-4a39.28,39.28,0,1,0,39.28,39.28,39.28,39.28,0,0,0-39.28-39.28Z" transform="translate(-150.88 -282.74)"/><path class="cls-1" d="M851.85,371.43a28.07,28.07,0,1,1-28.07,28.07,28.1,28.1,0,0,1,28.07-28.07m0-4a32.07,32.07,0,1,0,32.07,32.07,32.07,32.07,0,0,0-32.07-32.07Z" transform="translate(-150.88 -282.74)"/><path class="cls-1" d="M851.85,422.55A23.05,23.05,0,1,1,874.9,399.5,23.08,23.08,0,0,1,851.85,422.55Z" transform="translate(-150.88 -282.74)"/><path class="cls-1" d="M851.85,377.44A22.05,22.05,0,1,1,829.8,399.5a22.08,22.08,0,0,1,22.05-22.05m0-2A24.05,24.05,0,1,0,875.9,399.5a24.05,24.05,0,0,0-24.05-24.05Z" transform="translate(-150.88 -282.74)"/><path class="cls-1" d="M905.16,540a13.44,13.44,0,1,1,13.43-13.43A13.45,13.45,0,0,1,905.16,540Z" transform="translate(-150.88 -282.74)"/><path class="cls-1" d="M905.16,516.13a10.43,10.43,0,1,1-10.43,10.43,10.45,10.45,0,0,1,10.43-10.43m0-6a16.43,16.43,0,1,0,16.43,16.43,16.43,16.43,0,0,0-16.43-16.43Z" transform="translate(-150.88 -282.74)"/><path class="cls-3" d="M796.87,475.58A18.43,18.43,0,0,1,778.44,494a18.76,18.76,0,0,1-3.59-.35,18.43,18.43,0,1,1,22-18.08Z" transform="translate(-150.88 -282.74)"/><line class="cls-4" x1="612.61" y1="200.86" x2="622.79" y2="187.2"/><line class="cls-5" x1="626.89" y1="193.74" x2="637.75" y2="179.18"/><line class="cls-4" x1="625.18" y1="209.53" x2="634.93" y2="196.31"/><line class="cls-5" x1="620.84" y1="177.01" x2="611.09" y2="190.67"/><line class="cls-5" x1="635.8" y1="204.11" x2="644.69" y2="192.19"/><path class="cls-3" d="M955.13,309.95a18.43,18.43,0,0,1-18.43,18.43,18.76,18.76,0,0,1-3.59-.35,18.43,18.43,0,1,1,22-18.08Z" transform="translate(-150.88 -282.74)"/><line class="cls-5" x1="770.86" y1="35.23" x2="781.05" y2="21.57"/><line class="cls-4" x1="785.14" y1="28.11" x2="796.01" y2="13.55"/><line class="cls-5" x1="783.44" y1="43.9" x2="793.19" y2="30.68"/><line class="cls-4" x1="779.1" y1="11.38" x2="769.35" y2="25.04"/><line class="cls-4" x1="794.06" y1="38.48" x2="802.95" y2="26.56"/><path class="cls-3" d="M770.85,329.46a18.43,18.43,0,0,1-18.43,18.43,18.76,18.76,0,0,1-3.59-.35,18.43,18.43,0,1,1,22-18.08Z" transform="translate(-150.88 -282.74)"/><line class="cls-4" x1="586.59" y1="54.74" x2="596.78" y2="41.08"/><line class="cls-6" x1="600.87" y1="47.62" x2="611.74" y2="33.06"/><line class="cls-4" x1="599.16" y1="63.41" x2="608.92" y2="50.19"/><line class="cls-5" x1="594.83" y1="30.89" x2="585.07" y2="44.55"/><line class="cls-5" x1="609.79" y1="57.99" x2="618.68" y2="46.07"/><line class="cls-2" x1="619.98" y1="62.54" x2="662.03" y2="92.9"/><line class="cls-2" x1="643.63" y1="176.14" x2="669.21" y2="144.93"/><text class="cls-7" transform="translate(0 128.77)">Unizonn</text></svg>