<svg xmlns="http://www.w3.org/2000/svg" viewBox="0 0 649.12 251.98"><defs><style>.cls-1,.cls-3,.cls-5{fill:lime;}.cls-2,.cls-4{fill:none;stroke-linecap:round;stroke-linejoin:round;}.cls-2,.cls-3{stroke:lime;}.cls-2{stroke-width:6px;}.cls-3{stroke-miterlimit:10;}.cls-4{stroke:#fff;stroke-width:4px;}.cls-5{font-size:154.73px;font-family:Mistral, Mistral;}</style></defs><title>__Asset 4norm</title><g id="Layer_2" data-name="Layer 2"><g id="Layer_1-2" data-name="Layer 1"><path class="cls-1" d="M617.05,116.48A28.07,28.07,0,1,1,589,144.55a28.1,28.1,0,0,1,28.07-28.07m0-4a32.07,32.07,0,1,0,32.07,32.07,32.07,32.07,0,0,0-32.07-32.07Z"/><path class="cls-1" d="M617.05,166.6a22.05,22.05,0,1,1,22.05-22.05A22.08,22.08,0,0,1,617.05,166.6Z"/><path class="cls-1" d="M617.05,124.5A20.05,20.05,0,1,1,597,144.55a20.07,20.07,0,0,1,20.05-20.05m0-4a24.05,24.05,0,1,0,24.05,24.05,24.05,24.05,0,0,0-24.05-24.05Z"/><line class="cls-2" x1="513.11" y1="76.81" x2="550.4" y2="37.35"/><line class="cls-2" x1="500.12" y1="150.98" x2="527.85" y2="215.86"/><line class="cls-2" x1="526.55" y1="119.74" x2="581.61" y2="134.91"/><path class="cls-1" d="M484,73.19a35.28,35.28,0,1,1-35.28,35.28A35.32,35.32,0,0,1,484,73.19m0-4a39.28,39.28,0,1,0,39.28,39.28A39.28,39.28,0,0,0,484,69.19Z"/><path class="cls-1" d="M484,80.41a28.07,28.07,0,1,1-28.07,28.07A28.1,28.1,0,0,1,484,80.41m0-4A32.07,32.07,0,1,0,516,108.48,32.07,32.07,0,0,0,484,76.41Z"/><path class="cls-1" d="M484,131.53A23.05,23.05,0,1,1,507,108.48,23.08,23.08,0,0,1,484,131.53Z"/><path class="cls-1" d="M484,86.42a22.05,22.05,0,1,1-22.05,22.05A22.08,22.08,0,0,1,484,86.42m0-2A24.05,24.05,0,1,0,508,108.48,24.05,24.05,0,0,0,484,84.42Z"/><path class="cls-1" d="M537.28,249a13.44,13.44,0,1,1,13.43-13.43A13.45,13.45,0,0,1,537.28,249Z"/><path class="cls-1" d="M537.28,225.11a10.43,10.43,0,1,1-10.43,10.43,10.45,10.45,0,0,1,10.43-10.43m0-6a16.43,16.43,0,1,0,16.43,16.43,16.43,16.43,0,0,0-16.43-16.43Z"/><path class="cls-3" d="M429,184.56A18.43,18.43,0,0,1,410.56,203a18.76,18.76,0,0,1-3.59-.35,18.43,18.43,0,1,1,22-18.08Z"/><line class="cls-4" x1="395.61" y1="192.58" x2="405.79" y2="178.92"/><line class="cls-4" x1="409.89" y1="185.46" x2="420.75" y2="170.9"/><line class="cls-4" x1="408.18" y1="201.25" x2="417.93" y2="188.03"/><line class="cls-4" x1="403.84" y1="168.73" x2="394.09" y2="182.39"/><line class="cls-4" x1="418.8" y1="195.83" x2="427.69" y2="183.91"/><path class="cls-3" d="M587.25,18.93a18.43,18.43,0,0,1-18.43,18.43,18.76,18.76,0,0,1-3.59-.35,18.43,18.43,0,1,1,22-18.08Z"/><line class="cls-4" x1="553.86" y1="26.95" x2="564.05" y2="13.29"/><line class="cls-4" x1="568.14" y1="19.83" x2="579.01" y2="5.27"/><line class="cls-4" x1="566.44" y1="35.62" x2="576.19" y2="22.4"/><line class="cls-4" x1="562.1" y1="3.1" x2="552.35" y2="16.76"/><line class="cls-4" x1="577.06" y1="30.2" x2="585.95" y2="18.28"/><path class="cls-3" d="M403,38.44a18.43,18.43,0,0,1-18.43,18.43,18.76,18.76,0,0,1-3.59-.35,18.43,18.43,0,1,1,22-18.08Z"/><line class="cls-4" x1="369.59" y1="46.46" x2="379.78" y2="32.8"/><line class="cls-4" x1="383.87" y1="39.34" x2="394.74" y2="24.78"/><line class="cls-4" x1="382.16" y1="55.13" x2="391.92" y2="41.91"/><line class="cls-4" x1="377.83" y1="22.61" x2="368.07" y2="36.27"/><line class="cls-4" x1="392.79" y1="49.71" x2="401.68" y2="37.79"/><line class="cls-2" x1="402.98" y1="54.26" x2="445.03" y2="84.62"/><line class="cls-2" x1="426.63" y1="167.86" x2="452.21" y2="136.65"/><text class="cls-5" transform="translate(0 147.49)">Unizonn</text></g></g></svg>