<svg xmlns="http://www.w3.org/2000/svg" viewBox="0 0 283.5 251.98"><defs><style>.cls-1,.cls-3{fill:none;stroke-linecap:round;stroke-linejoin:round;}.cls-1,.cls-2{stroke:#000;}.cls-1{stroke-width:6px;}.cls-2{stroke-miterlimit:10;}.cls-3{stroke:#fff;stroke-width:4px;}</style></defs><title>__Asset 3norm</title><g id="Layer_2" data-name="Layer 2"><g id="Layer_1-2" data-name="Layer 1"><path d="M251.43,116.48a28.07,28.07,0,1,1-28.07,28.07,28.1,28.1,0,0,1,28.07-28.07m0-4a32.07,32.07,0,1,0,32.07,32.07,32.07,32.07,0,0,0-32.07-32.07Z"/><path d="M251.43,166.6a22.05,22.05,0,1,1,22.05-22.05A22.08,22.08,0,0,1,251.43,166.6Z"/><path d="M251.43,124.5a20.05,20.05,0,1,1-20.05,20.05,20.07,20.07,0,0,1,20.05-20.05m0-4a24.05,24.05,0,1,0,24.05,24.05,24.05,24.05,0,0,0-24.05-24.05Z"/><line class="cls-1" x1="147.49" y1="76.81" x2="184.77" y2="37.35"/><line class="cls-1" x1="132.74" y1="147.92" x2="162.23" y2="216.86"/><line class="cls-1" x1="160.93" y1="119.74" x2="215.99" y2="134.91"/><path d="M118.35,73.19a35.28,35.28,0,1,1-35.28,35.28,35.32,35.32,0,0,1,35.28-35.28m0-4a39.28,39.28,0,1,0,39.28,39.28,39.28,39.28,0,0,0-39.28-39.28Z"/><path d="M118.35,80.41a28.07,28.07,0,1,1-28.07,28.07,28.1,28.1,0,0,1,28.07-28.07m0-4a32.07,32.07,0,1,0,32.07,32.07,32.07,32.07,0,0,0-32.07-32.07Z"/><path d="M118.35,131.53a23.05,23.05,0,1,1,23.05-23.05A23.08,23.08,0,0,1,118.35,131.53Z"/><path d="M118.35,86.42A22.05,22.05,0,1,1,96.3,108.48a22.08,22.08,0,0,1,22.05-22.05m0-2a24.05,24.05,0,1,0,24.05,24.05,24.05,24.05,0,0,0-24.05-24.05Z"/><path d="M171.66,249a13.44,13.44,0,1,1,13.43-13.43A13.45,13.45,0,0,1,171.66,249Z"/><path d="M171.66,225.11a10.43,10.43,0,1,1-10.43,10.43,10.45,10.45,0,0,1,10.43-10.43m0-6a16.43,16.43,0,1,0,16.43,16.43,16.43,16.43,0,0,0-16.43-16.43Z"/><path class="cls-2" d="M63.37,184.56A18.43,18.43,0,0,1,44.94,203a18.76,18.76,0,0,1-3.59-.35,18.43,18.43,0,1,1,22-18.08Z"/><line class="cls-3" x1="29.98" y1="192.58" x2="40.17" y2="178.92"/><line class="cls-3" x1="44.26" y1="185.46" x2="55.13" y2="170.9"/><line class="cls-3" x1="42.56" y1="201.25" x2="52.31" y2="188.03"/><line class="cls-3" x1="38.22" y1="168.73" x2="28.47" y2="182.39"/><line class="cls-3" x1="53.18" y1="195.83" x2="62.07" y2="183.91"/><path class="cls-2" d="M221.63,18.93A18.43,18.43,0,0,1,203.2,37.35a18.76,18.76,0,0,1-3.59-.35,18.43,18.43,0,1,1,22-18.08Z"/><line class="cls-3" x1="188.24" y1="26.95" x2="198.43" y2="13.29"/><line class="cls-3" x1="202.52" y1="19.83" x2="213.39" y2="5.27"/><line class="cls-3" x1="200.82" y1="35.62" x2="210.57" y2="22.4"/><line class="cls-3" x1="196.48" y1="3.1" x2="186.72" y2="16.76"/><line class="cls-3" x1="211.44" y1="30.2" x2="220.33" y2="18.28"/><path class="cls-2" d="M37.35,38.44A18.43,18.43,0,0,1,18.93,56.87a18.76,18.76,0,0,1-3.59-.35,18.43,18.43,0,1,1,22-18.08Z"/><line class="cls-3" x1="3.97" y1="46.46" x2="14.16" y2="32.8"/><line class="cls-3" x1="18.25" y1="39.34" x2="29.12" y2="24.78"/><line class="cls-3" x1="16.54" y1="55.13" x2="26.3" y2="41.91"/><line class="cls-3" x1="12.21" y1="22.61" x2="2.45" y2="36.27"/><line class="cls-3" x1="27.17" y1="49.71" x2="36.05" y2="37.79"/><line class="cls-1" x1="37.35" y1="54.26" x2="79.41" y2="84.62"/><line class="cls-1" x1="61.01" y1="167.86" x2="86.59" y2="136.65"/></g></g></svg>